<?xml version="1.0" standalone="no"?>
<!DOCTYPE svg PUBLIC "-//W3C//DTD SVG 1.1//EN" "http://www.w3.org/Graphics/SVG/1.1/DTD/svg11.dtd" >
<svg xmlns="http://www.w3.org/2000/svg">
<metadata>Generated by IcoMoon</metadata>
<defs>
<font id="fa-light-300" horiz-adv-x="1024">
<font-face units-per-em="1024" ascent="896" descent="-128" />
<missing-glyph horiz-adv-x="1024" />
<glyph unicode="&#x20;" horiz-adv-x="0" d="" />
<glyph unicode="&#xf000;" glyph-name="glass-martini" d="M1004.1 780.8l-460.1-460.080v-384.72h106.641c29.459 0 53.34-23.881 53.34-53.34 0-5.881-4.76-10.66-10.66-10.66h-362.66c-5.881 0-10.66 4.76-10.66 10.66 0 29.459 23.881 53.34 53.34 53.34h106.66v384.72l-460.1 460.080c-42.5 42.52-12.4 115.199 47.699 115.199h888.8c60.1 0 90.199-72.68 47.699-115.199zM512.12 379.34l446.721 446.74c1.041 1.020 1.66 1.641 0.76 3.779-0.879 2.141-1.76 2.141-3.199 2.141h-888.8c-1.439 0-2.32 0-3.199-2.16-0.881-2.141-0.26-2.76 0.76-3.779z" />
<glyph unicode="&#xf001;" glyph-name="music" d="M1024 831.98l-0.020-671.82c0-0.061 0.020-0.1 0.020-0.16 0-88.359-85.961-160-192-160s-192 71.641-192 160 85.961 160 192 160c49.4 0 93.98-15.98 128-41.52v297.52l-576-192v-352c0-88.359-85.961-160-192-160s-192 71.641-192 160 85.961 160 192 160c49.4 0 93.98-15.98 128-41.52v489.52c0 28 17.42 52.58 42.84 60.98l581.56 192c6.199 2.059 12.42 3.020 18.5 3.020 32.459 0 61.1-27.48 61.1-64.020zM192-64c69.381 0 128 43.961 128 96s-58.619 96-128 96-128-43.961-128-96 58.619-96 128-96zM960 643.46v187.279l-576-190.74v-188.539zM832 64c69.381 0 128 43.961 128 96s-58.619 96-128 96-128-43.961-128-96 58.619-96 128-96z" />
<glyph unicode="&#xf002;" glyph-name="search" d="M1017-67.199c9.4-9.4 9.4-24.602 0-34l-19.801-19.801c-9.398-9.4-24.6-9.4-34 0l-258 258c-4.398 4.6-7 10.6-7 17v20.4c-74.199-68.4-173.199-110.4-282.2-110.4-229.8 0-416 186.199-416 416s186.199 416 416 416 416-186.199 416-416c0-109-42-208-110.6-282.2h20.6c6.4 0 12.4-2.4 17-7zM416 128c194.6 0 352 157.4 352 352s-157.4 352-352 352-352-157.4-352-352 157.4-352 352-352z" />
<glyph unicode="&#xf004;" glyph-name="heart" d="M924.6 770.6c125.6-107.199 132.201-299.6 19.4-415.6l-387-399.6c-12.4-13-28.801-19.4-45.199-19.4-16.4 0-32.801 6.6-45.201 19.4l-387 399.6c-112.4 116-105.799 308.4 19.801 415.6 127 108 291.6 57.201 373.2-27.199l39.4-40.6 39.4 40.799c101.199 104.4 264.2 119.801 373.2 27zM898.4 399.4c76.799 79.4 92.6 230.4-15.4 322.4-109.199 93-239.2 25-285.6-23l-85.4-88.201-85.4 88.201c-47.199 48.799-176 116.6-285.6 23-108.199-92.201-92.199-243.202-15.4-322.4l387.202-399.6z" />
<glyph unicode="&#xf005;" glyph-name="star" horiz-adv-x="1152" d="M1056.2 553c52.4-7.6 73.4-72.199 35.4-109.199l-211.4-206 50-291c9-52.602-46.398-91.801-92.799-67.4l-261.4 137.4-261.4-137.4c-46.4-24.6-101.799 14.799-92.799 67.4l50 291-211.4 206c-38 37-17 101.6 35.4 109.199l292.2 42.6 130.6 264.8c23.6 47.799 91.4 47.199 114.801 0l130.6-264.8zM811.6 260.2l235.4 229.602-325.4 47.199-145.6 295-145.6-295-325.4-47.199 235.6-229.8-55.6-324 291 153 291.2-152.801z" />
<glyph unicode="&#xf007;" glyph-name="user" horiz-adv-x="896" d="M627.2 320c148.4 0 268.8-120.4 268.8-268.8v-83.199c0-53-43-96-96-96h-704c-53 0-96 43-96 96v83.199c0 148.4 120.4 268.8 268.8 268.8 57.6 0 85-32 179.199-32s121.801 32 179.199 32zM832-32v83.199c0 113-91.801 204.8-204.8 204.8-39.199 0-78.398-32-179.199-32-101 0-140 32-179.199 32-113 0-204.8-91.801-204.8-204.8v-83.199c0-17.6 14.4-32 32-32h704c17.6 0 32 14.4 32 32zM448 384c-141.4 0-256 114.6-256 256s114.6 256 256 256 256-114.6 256-256-114.6-256-256-256zM448 832c-105.801 0-192-86.199-192-192s86.199-192 192-192 192 86.199 192 192-86.199 192-192 192z" />
<glyph unicode="&#xf008;" glyph-name="film" d="M976 768c26.6 0 48-21.4 48-48v-672c0-26.6-21.4-48-48-48h-16v40c0 13.199-10.801 24-24 24h-80c-13.199 0-24-10.801-24-24v-40h-640v40c0 13.199-10.801 24-24 24h-80c-13.199 0-24-10.801-24-24v-40h-16c-26.6 0-48 21.4-48 48v672c0 26.6 21.4 48 48 48h16v-40c0-13.199 10.801-24 24-24h80c13.199 0 24 10.801 24 24v40h640v-40c0-13.199 10.801-24 24-24h80c13.199 0 24 10.801 24 24v40h16zM192 152v80c0 13.199-10.801 24-24 24h-80c-13.199 0-24-10.801-24-24v-80c0-13.199 10.801-24 24-24h80c13.199 0 24 10.801 24 24zM192 344v80c0 13.199-10.801 24-24 24h-80c-13.199 0-24-10.801-24-24v-80c0-13.199 10.801-24 24-24h80c13.199 0 24 10.801 24 24zM192 536v80c0 13.199-10.801 24-24 24h-80c-13.199 0-24-10.801-24-24v-80c0-13.199 10.801-24 24-24h80c13.199 0 24 10.801 24 24zM768 88v240c0 13.199-10.801 24-24 24h-464c-13.199 0-24-10.801-24-24v-240c0-13.199 10.801-24 24-24h464c13.199 0 24 10.801 24 24zM768 440v240c0 13.199-10.801 24-24 24h-464c-13.199 0-24-10.801-24-24v-240c0-13.199 10.801-24 24-24h464c13.199 0 24 10.801 24 24zM960 152v80c0 13.199-10.801 24-24 24h-80c-13.199 0-24-10.801-24-24v-80c0-13.199 10.801-24 24-24h80c13.199 0 24 10.801 24 24zM960 344v80c0 13.199-10.801 24-24 24h-80c-13.199 0-24-10.801-24-24v-80c0-13.199 10.801-24 24-24h80c13.199 0 24 10.801 24 24zM960 536v80c0 13.199-10.801 24-24 24h-80c-13.199 0-24-10.801-24-24v-80c0-13.199 10.801-24 24-24h80c13.199 0 24 10.801 24 24z" />
<glyph unicode="&#xf009;" glyph-name="th-large" d="M0 736c0 53.020 42.98 96 96 96h832c53.020 0 96-42.98 96-96v-704c0-53.020-42.98-96-96-96h-832c-53.020 0-96 42.98-96 96v704zM480 768h-384c-17.674 0-32-14.326-32-32v-320h416v352zM64 32c0-17.674 14.326-32 32-32h384v352h-416v-320zM544 0h384c17.674 0 32 14.326 32 32v320h-416v-352zM960 416v320c0 17.674-14.326 32-32 32h-384v-352h416z" />
<glyph unicode="&#xf00a;" glyph-name="th" d="M0 736c0 53.020 42.98 96 96 96h832c53.020 0 96-42.98 96-96v-704c0-53.020-42.98-96-96-96h-832c-53.020 0-96 42.98-96 96v704zM640 768h-256v-213.334h256v213.334zM960 277.334v213.332h-256v-213.332h256zM640 277.334v213.332h-256v-213.332h256zM64 490.666v-213.334h256v213.334h-256zM320 768h-224c-17.674 0-32-14.326-32-32v-181.334h256v213.334zM64 32c0-17.674 14.326-32 32-32h224v213.334h-256v-181.334zM384 0h256v213.334h-256v-213.334zM704 0h224c17.674 0 32 14.326 32 32v181.334h-256v-213.334zM960 554.666v181.334c0 17.674-14.326 32-32 32h-224v-213.334h256z" />
<glyph unicode="&#xf00b;" glyph-name="th-list" d="M0 736c0 53.020 42.98 96 96 96h832c53.020 0 96-42.98 96-96v-704c0-53.020-42.98-96-96-96h-832c-53.020 0-96 42.98-96 96v704zM960 736c0 17.674-14.326 32-32 32h-544v-213.334h576v181.334zM960 277.334v213.332h-576v-213.332h576zM64 490.666v-213.334h256v213.334h-256zM320 768h-224c-17.674 0-32-14.326-32-32v-181.334h256v213.334zM64 32c0-17.674 14.326-32 32-32h224v213.334h-256v-181.334zM384 0h544c17.674 0 32 14.326 32 32v181.334h-576v-213.334z" />
<glyph unicode="&#xf00c;" glyph-name="check" horiz-adv-x="896" d="M827.010 712.098c9.373 9.373 24.568 9.373 33.939 0l22.629-22.627c9.371-9.375 9.371-24.57 0-33.943l-599.626-599.624c-9.373-9.373-24.568-9.373-33.941 0l-237.588 237.588c-9.371 9.373-9.371 24.57 0 33.941l22.627 22.627c9.373 9.371 24.568 9.371 33.941 0l197.99-197.99z" />
<glyph unicode="&#xf00d;" glyph-name="times" horiz-adv-x="640" d="M387.88 384l247.42-247.42c6.238-6.24 6.238-16.381 0-22.619l-45.262-45.262c-6.238-6.238-16.379-6.238-22.619 0l-247.421 247.421-247.44-247.42c-6.24-6.238-16.381-6.238-22.621 0l-45.26 45.262c-6.24 6.238-6.24 16.379 0 22.619l247.44 247.42-247.44 247.44c-6.24 6.24-6.24 16.381 0 22.621l45.281 45.26c6.238 6.24 16.379 6.24 22.619 0l247.42-247.44 247.42 247.42c6.24 6.238 16.381 6.238 22.619 0l45.262-45.262c6.238-6.238 6.238-16.379 0-22.619l-42.301-42.301z" />
<glyph unicode="&#xf00e;" glyph-name="search-plus" d="M639.6 488v-16c0-13.199-10.799-24-24-24h-168v-168c0-13.199-10.799-24-24-24h-16c-13.199 0-24 10.801-24 24v168h-168c-13.199 0-24 10.801-24 24v16c0 13.199 10.801 24 24 24h168v168c0 13.199 10.801 24 24 24h16c13.201 0 24-10.801 24-24v-168h168c13.201 0 24-10.801 24-24zM1016.6-98l-22.6-22.6c-9.4-9.4-24.6-9.4-34 0l-258 258c-4.6 4.6-7 10.6-7 17v17c-73.801-66.801-171.6-107.4-279-107.4-228.4 0-413 182.199-416 410.6-3 234 187.4 424.4 421.4 421.4 228.4-3 410.6-187.6 410.6-416 0-107.4-40.6-205.2-107.4-279h17c6.4 0 12.4-2.6 17-7l258-258c9.4-9.4 9.4-24.6 0-34zM768 480c0 194.6-157.4 352-352 352s-352-157.4-352-352 157.4-352 352-352 352 157.4 352 352z" />
<glyph unicode="&#xf010;" glyph-name="search-minus" d="M615.6 448.4h-400c-13.199 0-24 10.799-24 24v16c0 13.199 10.801 24 24 24h400c13.201 0 24-10.801 24-24v-16c0-13.201-10.799-24-24-24zM1016.6-98l-22.6-22.6c-9.4-9.4-24.6-9.4-34 0l-258 258c-4.6 4.6-7 10.6-7 17v17c-73.801-66.801-171.6-107.4-279-107.4-228.4 0-413 182.199-416 410.6-3 234 187.4 424.4 421.4 421.4 228.4-3 410.6-187.6 410.6-416 0-107.4-40.6-205.2-107.4-279h17c6.4 0 12.4-2.6 17-7l258-258c9.4-9.4 9.4-24.6 0-34zM768 480c0 194.6-157.4 352-352 352s-352-157.4-352-352 157.4-352 352-352 352 157.4 352 352z" />
<glyph unicode="&#xf011;" glyph-name="power-off" d="M777 803.4c138.801-88 231-243 231-419.4 0-273.6-221.6-495.4-495-496-273-0.6-496.6 222-497 495.2-0.199 176.801 92 332.202 231 420.202 11.6 7.4 27 3.6 33.801-8.4l7.799-14c6.201-11.199 2.6-25.199-8.199-32-120.6-77-200.4-212.2-200.4-365 0-239.8 194.6-432 432-432 239.8 0 432 194.6 432 432 0 154-80.199 288.4-200.6 364.8-10.801 6.799-14.4 21-8.201 32l7.801 14c6.801 12.199 22.4 15.799 34 8.6zM544 344c0-13.199-10.801-24-24-24h-16c-13.199 0-24 10.801-24 24v528c0 13.199 10.801 24 24 24h16c13.199 0 24-10.801 24-24v-528z" />
<glyph unicode="&#xf012;" glyph-name="signal" horiz-adv-x="1280" d="M416 320c8.84 0 16-7.16 16-16v-416c0-8.84-7.16-16-16-16h-64c-8.84 0-16 7.16-16 16v416c0 8.84 7.16 16 16 16h64zM160 128c8.84 0 16-7.16 16-16v-224c0-8.84-7.16-16-16-16h-64c-8.84 0-16 7.16-16 16v224c0 8.84 7.16 16 16 16h64zM672 512c8.84 0 16-7.16 16-16v-608c0-8.84-7.16-16-16-16h-64c-8.84 0-16 7.16-16 16v608c0 8.84 7.16 16 16 16h64zM928 704c8.84 0 16-7.16 16-16v-800c0-8.84-7.16-16-16-16h-64c-8.84 0-16 7.16-16 16v800c0 8.84 7.16 16 16 16h64zM1184 896c8.84 0 16-7.16 16-16v-992c0-8.84-7.16-16-16-16h-64c-8.84 0-16 7.16-16 16v992c0 8.84 7.16 16 16 16h64z" />
<glyph unicode="&#xf013;" glyph-name="cog" d="M965.392 297.448c19.152-11.057 28.389-33.803 22.092-55.002-22.428-75.496-62.35-143.455-115.070-199.189-15.268-16.143-39.635-19.674-58.875-8.566l-65.123 37.596c-21.656-16.479-59.592-38.412-84.678-48.957v-75.229c0-22.262-15.307-41.607-36.969-46.734-75.303-17.818-154.25-17.816-229.54 0-21.664 5.127-36.969 24.475-36.969 46.734v75.229c-25.088 10.545-63.023 32.477-84.678 48.957l-65.123-37.596c-19.24-11.105-43.607-7.574-58.875 8.566-52.721 55.734-92.643 123.693-115.070 199.189-6.297 21.199 2.939 43.947 22.092 55.002l65.221 37.654c-1.697 13.443-3.074 35.35-3.074 48.9s1.377 35.455 3.074 48.898l-65.221 37.654c-19.152 11.057-28.389 33.803-22.092 55.002 22.428 75.496 62.35 143.455 115.070 199.189 15.266 16.141 39.633 19.672 58.875 8.564l65.123-37.596c21.654 16.48 59.59 38.414 84.678 48.959v75.229c0 22.262 15.307 41.607 36.969 46.734 75.303 17.818 154.252 17.816 229.54 0 21.664-5.127 36.969-24.475 36.969-46.734v-75.229c25.086-10.545 63.021-32.479 84.678-48.959l65.123 37.596c19.24 11.107 43.607 7.576 58.875-8.564 52.721-55.734 92.643-123.691 115.070-199.189 6.297-21.199-2.939-43.947-22.092-55.002l-65.221-37.654c1.697-13.443 3.074-35.35 3.074-48.898 0-13.551-1.377-35.457-3.074-48.9zM834.434 96.525c39.42 44.178 69.379 95.979 87.859 151.914l-92.658 53.48c13.076 70.869 13.070 93.307 0 164.158l92.658 53.48c-18.48 55.939-48.441 107.74-87.859 151.938l-92.617-53.52c-54.748 46.863-74.123 58.127-142.078 82.137v106.959c-23.963 4.951-63.27 8.969-87.738 8.969s-63.775-4.018-87.738-8.969v-106.957c-67.951-24.008-87.324-35.27-142.078-82.137l-92.617 53.52c-39.418-44.199-69.379-96-87.859-151.938l92.658-53.48c-13.076-70.869-13.068-93.324 0-164.158l-92.658-53.48c18.48-55.938 48.439-107.736 87.859-151.916l92.617 53.48c55.369-47.328 74.836-58.359 142.078-82.117v-106.959c23.963-4.943 63.27-8.955 87.738-8.955s63.775 4.012 87.738 8.955v106.959c68.959 24.365 88.102 35.975 142.078 82.117zM512 576c105.869 0 192-86.131 192-192s-86.131-192-192-192-192 86.131-192 192 86.131 192 192 192zM512 256c70.58 0 128 57.42 128 128s-57.42 128-128 128-128-57.42-128-128 57.42-128 128-128z" />
<glyph unicode="&#xf015;" glyph-name="home" horiz-adv-x="1152" d="M1082 437.68c3.303-2.65 5.982-8.24 5.982-12.475 0-3.127-1.596-7.635-3.563-10.064l-20.199-24.82c-2.652-3.258-8.211-5.902-12.412-5.902-3.135 0-7.654 1.605-10.088 3.582l-81.721 66.76v-486.1c0-17.664-14.336-32-32-32l-256-0.66c-17.664 0-32 14.336-32 32v256.16l-128 0.6v-256c0-17.664-14.336-32-32-32h-256c-17.664 0-32 14.336-32 32v486l-81.721-66.76c-2.42-1.938-6.898-3.51-9.998-3.51-4.195 0-9.75 2.639-12.4 5.891l-20.201 24.818c-1.971 2.432-3.572 6.947-3.572 10.078 0 4.195 2.641 9.752 5.893 12.402l465.62 380.042c9.758 7.867 27.848 14.254 40.381 14.254s30.623-6.387 40.381-14.254l279.62-228.24v102.66c0 6.623 5.377 12 12 12h40c6.623 0 12-5.377 12-12v-154.801zM895.78 0.5l0.221 506.48-320 261.138-320-261.138v-506.48h191.98v256.28c0 17.664 14.336 32 32 32h0.1l192-0.539c17.555-0.109 31.846-14.445 31.9-32v-256.34l191.799 0.6z" />
<glyph unicode="&#xf017;" glyph-name="clock" d="M512 880c274 0 496-222 496-496s-222-496-496-496-496 222-496 496 222 496 496 496zM944 384c0 239.8-194.6 432-432 432-239.8 0-432-194.6-432-432 0-239.8 194.6-432 432-432 239.8 0 432 194.6 432 432zM646.2 207.4l-162.398 118c-6.201 4.6-9.801 11.799-9.801 19.4v319.2c0 13.199 10.801 24 24 24h28c13.199 0 24-10.801 24-24v-292.6l141-102.6c10.801-7.801 13-22.801 5.199-33.602l-16.398-22.6c-7.801-10.6-22.801-13-33.602-5.199z" />
<glyph unicode="&#xf018;" glyph-name="road" horiz-adv-x="1152" d="M558.94 512c-11.619 0-20.699 12.34-19.479 26.52l7.5 87.16c0.699 8.141 6.299 14.32 12.979 14.32h32.1c6.682 0 12.281-6.18 12.98-14.32l7.5-87.16c1.24-14.18-7.84-26.52-19.459-26.52h-34.121zM546.9 288c-15.5 0-27.58 16.461-25.939 35.359l8.26 96c1.398 16.281 12.6 28.641 25.959 28.641h41.66c13.359 0 24.561-12.359 25.961-28.641l8.26-96c1.619-18.898-10.461-35.359-25.961-35.359h-58.199zM568.22 704c-7.76 0-13.801 8.24-12.98 17.68l2.76 32c0.699 8.141 6.301 14.32 12.98 14.32h10.059c6.682 0 12.281-6.18 12.98-14.32l2.76-32c0.82-9.439-5.219-17.68-12.979-17.68h-15.58zM616.12 224c13.361 0 24.561-12.359 25.941-28.641l13.779-160c1.621-18.898-10.459-35.359-25.959-35.359h-107.781c-15.5 0-27.58 16.461-25.959 35.359l13.779 160c1.4 16.281 12.6 28.641 25.961 28.641h80.238zM314.7 768c10.66 0 18.34-10.24 15.361-20.48l-211.3-724.48c-3.98-13.658-16.5-23.039-30.721-23.039h-56c-22.84 0-38.318 23.24-29.539 44.301l297.44 713.86c2.262 5.432 8.871 9.84 14.754 9.84h0.006zM1149.5 44.301c8.801-21.061-6.699-44.301-29.52-44.301h-56.006c-13.248 0-27.008 10.322-30.715 23.039l-211.298 724.48c-2.98 10.24 4.699 20.48 15.359 20.48 5.883-0.002 12.494-4.41 14.76-9.84z" />
<glyph unicode="&#xf019;" glyph-name="download" d="M904 32c0-22-18-40-40-40s-40 18-40 40 18 40 40 40 40-18 40-40zM736 72c22 0 40-18 40-40s-18-40-40-40-40 18-40 40 18 40 40 40zM1024 168v-208c0-48.6-39.4-88-88-88h-848c-48.6 0-88 39.4-88 88v208c0 48.6 39.4 88 88 88h198.801l-112.801 112.801c-50.4 50.398-14.6 136.6 56.6 136.6h105.4v310.6c0 44.199 35.801 80 80 80h192c44.199 0 80-35.801 80-80v-310.6h105.4c71.199 0 106.799-86.201 56.6-136.6l-112.801-112.801h198.801c48.6 0 88-39.4 88-88zM500.6 132.6c6.201-6.199 16.4-6.199 22.6 0l281.4 281.4c10 10 3 27.4-11.4 27.4h-169.199v374.6c0 8.801-7.199 16-16 16h-192c-8.801 0-16-7.199-16-16v-374.6h-169.4c-14.199 0-21.4-17.201-11.4-27.4zM960 168c0 13.199-10.801 24-24 24h-262.8l-104.6-104.6c-31.199-31.201-82-31.201-113.199 0l-104.6 104.6h-262.8c-13.199 0-24-10.801-24-24v-208c0-13.199 10.801-24 24-24h848c13.199 0 24 10.801 24 24v208z" />
<glyph unicode="&#xf01c;" glyph-name="inbox" horiz-adv-x="1152" d="M1133.638 441.246c10.135-13.936 18.361-39.23 18.361-56.463v-288.784c0-53.020-42.98-96-96-96h-960c-53.020 0-96 42.98-96 96v288.784c0 17.232 8.227 42.527 18.361 56.463l208.886 287.218c15.871 21.822 50.652 39.535 77.637 39.535h542.228c26.986 0 61.77-17.713 77.641-39.535zM279.006 690.822l-176.598-242.822h273.146l64-128h272.89l64 128h273.146l-176.596 242.822c-6.002 8.252-15.676 13.178-25.881 13.178h-542.228c-8.988-0.014-20.582-5.918-25.881-13.178zM1088 352c0 17.674-14.326 32-32 32h-240l-64-128h-352l-64 128h-240c-17.674 0-32-14.326-32-32v-256c0-17.646 14.355-32 32-32h960c17.645 0 32 14.354 32 32v256z" />
<glyph unicode="&#xf01e;" glyph-name="redo" d="M984 880c13.254 0 24-10.746 24-24v-320c0-13.254-10.746-24-24-24h-320c-13.254 0-24 10.746-24 24v20c0 13.254 10.746 24 24 24h228.578c-71.104 137.846-214.854 232-380.578 232-237.338 0-428-192.512-428-428 0-237.338 192.512-428 428-428 110.131 0 210.436 41.523 286.218 109.729 9.465 8.52 23.957 8.098 32.963-0.908l14.139-14.139c9.744-9.744 9.262-25.629-0.965-34.865-87.951-79.443-204.504-127.816-332.356-127.816-273.668 0-495.572 221.638-496 495.208-0.426 272.776 221.64 495.938 494.414 496.792 183.107 0.572 343.194-98.092 429.586-245.248v221.25c0 13.254 10.746 24 24 24h20z" />
<glyph unicode="&#xf021;" glyph-name="sync" d="M984 880c13.254 0 24-10.746 24-24v-320c0-13.254-10.746-24-24-24h-320c-13.254 0-24 10.746-24 24v20c0 13.254 10.746 24 24 24h228.578c-71.104 137.846-214.854 232-380.578 232-229.806 0-415.686-180.432-427.412-405.414-0.662-12.688-11.248-22.586-23.953-22.586h-20.033c-13.652 0-24.66 11.379-23.982 25.014 13.029 262.31 229.836 470.986 495.38 470.986 182.447 0 341.858-98.521 428-245.254v221.254c0 13.254 10.746 24 24 24h20zM983.398 384c13.652 0 24.66-11.379 23.982-25.014-13.029-262.31-229.834-470.986-495.38-470.986-182.445 0-341.858 98.521-428 245.254v-221.254c0-13.254-10.746-24-24-24h-20c-13.254 0-24 10.746-24 24v320c0 13.254 10.746 24 24 24h320c13.254 0 24-10.746 24-24v-20c0-13.254-10.746-24-24-24h-228.598c71.254-138.096 215.38-232 380.598-232 229.092 0 415.682 179.684 427.414 405.414 0.66 12.688 11.25 22.586 23.953 22.586h20.031z" />
<glyph unicode="&#xf022;" glyph-name="list-alt" d="M928 768h-832c-17.646 0-32-14.355-32-32v-704c0-17.645 14.354-32 32-32h832c17.646 0 32 14.355 32 32v704c0 17.645-14.354 32-32 32zM928 832c53.020 0 96-42.98 96-96v-704c0-53.020-42.98-96-96-96h-832c-53.020 0-96 42.98-96 96v704c0 53.020 42.98 96 96 96h832zM256 640c35.346 0 64-28.654 64-64s-28.654-64-64-64-64 28.654-64 64 28.654 64 64 64zM256 448c35.346 0 64-28.654 64-64s-28.654-64-64-64-64 28.654-64 64 28.654 64 64 64zM256 256c35.346 0 64-28.654 64-64s-28.654-64-64-64-64 28.654-64 64 28.654 64 64 64zM832 552c0-6.623-5.377-12-12-12h-424c-6.623 0-12 5.377-12 12v48c0 6.623 5.377 12 12 12h424c6.623 0 12-5.377 12-12v-48zM832 360c0-6.623-5.377-12-12-12h-424c-6.623 0-12 5.377-12 12v48c0 6.623 5.377 12 12 12h424c6.623 0 12-5.377 12-12v-48zM832 168c0-6.623-5.377-12-12-12h-424c-6.623 0-12 5.377-12 12v48c0 6.623 5.377 12 12 12h424c6.623 0 12-5.377 12-12v-48z" />
<glyph unicode="&#xf023;" glyph-name="lock" horiz-adv-x="896" d="M800 448c53 0 96-43 96-96v-384c0-53-43-96-96-96h-704c-53 0-96 43-96 96v384c0 53 43 96 96 96h32v128c0 176.801 144 320.6 321 320 176.801-0.6 319-146.199 319-323v-125h32zM192 576v-128h512v128c0 141.199-114.801 256-256 256s-256-114.801-256-256zM800-64c17.6 0 32 14.4 32 32v384c0 17.6-14.4 32-32 32h-704c-17.6 0-32-14.4-32-32v-384c0-17.6 14.4-32 32-32h704z" />
<glyph unicode="&#xf024;" glyph-name="flag" d="M688.696 746.666c94.535 0 193.5 39.645 267.060 73.812 31.832 14.783 68.244-8.422 68.244-43.521v-523.334c0-15.9-7.85-30.818-21.027-39.719-76.15-51.43-157.396-85.906-260.018-85.906-139.848 0-230.44 69.334-343.65 69.334-127.172 0-208.458-29.051-271.304-58.129v-243.204c0-13.254-10.746-24-24-24h-16c-13.254 0-24 10.746-24 24v813.484c-38.895 13.752-66.293 51.836-63.848 95.973 2.713 49.043 42.912 88.545 91.99 90.467 59.473 2.33 106.963-49.35 98.971-108.822 46.58 18.254 96.957 28.898 153.932 28.898 139.848 0 230.44-69.334 343.65-69.334zM96 840c-22.057 0-40-17.943-40-40s17.943-40 40-40 40 17.943 40 40-17.943 40-40 40zM960 261.334v490.666c-66.869-31.707-179.465-69.334-271.304-69.334-127.158 0-216.422 69.334-343.65 69.334-87.949 0-170.811-35.941-217.044-69.334v-473.332c66.746 31.629 179.271 52 271.304 52 127.158 0 216.422-69.334 343.65-69.334 87.949 0 170.811 35.939 217.044 69.334z" />
<glyph unicode="&#xf025;" glyph-name="headphones" d="M512 832c283.006 0 512-229.036 512-512v-102.855c0-10.381-7.359-22.904-16.426-27.957l-47.607-26.523c0.010-0.889 0.033-1.773 0.033-2.664 0-123.713-100.287-224-224-224h-48c-26.51 0-48 21.49-48 48v352c0 26.51 21.49 48 48 48h48c99.352 0 183.58-64.686 212.906-154.234l11.094 6.18v84.055c0 247.632-200.408 448-448 448-247.632 0-448-200.41-448-448v-84.055l11.094-6.182c29.326 89.551 113.557 154.236 212.906 154.236h48c26.51 0 48-21.49 48-48v-352c0-26.51-21.49-48-48-48h-48c-123.713 0-224 100.287-224 224 0 0.891 0.023 1.775 0.033 2.662l-47.607 26.523c-9.066 5.053-16.426 17.578-16.426 27.957v102.857c0 283.006 229.034 512 512 512zM288 320c-88.225 0-160-71.775-160-160s71.775-160 160-160h32v320h-32zM736 0c88.225 0 160 71.775 160 160s-71.775 160-160 160h-32v-320h32z" />
<glyph unicode="&#xf026;" glyph-name="volume-off" horiz-adv-x="512" d="M463.62 768c24.66 0 48.381-18.98 48.381-48v-672c0-28.961-23.721-48-48.381-48h-0.178c-10.848 0-25.83 6.271-33.441 14l-177.881 178h-204.12c-26.496 0-48 21.504-48 48v288c0 26.496 21.504 48 48 48h204.060l178 178c7.604 7.729 22.574 14 33.416 14h0.143zM448 86.66v594.68l-169.381-169.34h-214.62v-256h214.62z" />
<glyph unicode="&#xf027;" glyph-name="volume-down" horiz-adv-x="768" d="M685.82 506.86c50.68-24.279 82.18-72.139 82.18-124.859s-31.5-100.561-82.18-124.84c-15.6-7.58-34.961-1.1-42.68 15-7.621 15.92-0.881 35.061 15.059 42.68 28.24 13.561 45.801 39.279 45.801 67.16s-17.561 53.6-45.801 67.18c-15.939 7.621-22.68 26.74-15.059 42.68 7.68 15.961 27.059 22.602 42.68 15zM463.62 766c24.641 0 48.381-19.020 48.381-48.039v-671.922c0-29-23.721-48.039-48.381-48.039-11.799 0-23.818 4.359-33.559 14.1l-177.941 177.9h-204.12c-26.52 0-48 21.5-48 48v288c0 26.52 21.48 48 48 48h204.12l177.941 177.9c9.719 9.74 21.74 14.1 33.559 14.1zM448 84.66v594.68l-169.381-169.34h-214.62v-256h214.62z" />
<glyph unicode="&#xf028;" glyph-name="volume-up" horiz-adv-x="1152" d="M685.82 508.86c50.68-24.279 82.18-72.139 82.18-124.859s-31.5-100.561-82.18-124.84c-15.6-7.58-34.961-1.1-42.68 15-7.621 15.92-0.881 35.061 15.059 42.68 28.24 13.561 45.801 39.279 45.801 67.16s-17.561 53.6-45.801 67.18c-15.939 7.621-22.68 26.74-15.059 42.68 7.68 15.961 27.059 22.602 42.68 15zM463.62 768c24.641 0 48.381-19.020 48.381-48.039v-671.922c0-29-23.721-48.039-48.381-48.039-11.799 0-23.818 4.359-33.559 14.1l-177.941 177.9h-204.12c-26.52 0-48 21.5-48 48v288c0 26.52 21.48 48 48 48h204.12l177.941 177.9c9.719 9.74 21.74 14.1 33.559 14.1zM448 86.66v594.68l-169.381-169.34h-214.62v-256h214.62zM843.020 892.34c190.541-100.199 308.98-294.98 308.98-508.32 0-213.36-118.439-408.138-308.98-508.32-15.959-8.279-35.119-2.1-43.32 13.4-8.26 15.621-2.238 35 13.4 43.221 169.52 89.1 274.8 262.2 274.8 451.7s-105.281 362.6-274.8 451.702c-15.66 8.219-21.66 27.6-13.4 43.219 8.262 15.641 27.541 21.561 43.32 13.4zM960 384.020c0-132.26-68.039-253.26-177.619-315.74-15.961-9.1-35.48-2.979-44.080 11.781-8.881 15.32-3.521 34.879 11.92 43.719 89.539 51.080 145.219 150.801 145.219 260.24 0 109.441-55.68 209.14-145.219 260.24-15.461 8.84-20.82 28.4-11.92 43.721 8.898 15.34 28.699 20.539 44.080 11.779 109.58-62.5 177.619-183.5 177.619-315.74z" />
<glyph unicode="&#xf029;" glyph-name="qrcode" horiz-adv-x="896" d="M0 448v384h384v-384h-384zM64 768v-256h256v256h-256zM512 832h384v-384h-384v384zM832 512v256h-256v-256h256zM0-64v384h384v-384h-384zM64 256v-256h256v256h-256zM128 704h128v-128h-128v128zM768 576h-128v128h128v-128zM128 192h128v-128h-128v128zM832 320h64v-256h-256v64h-64v-192h-64v384h192v-64h128v64zM832 0h64v-64h-64v64zM704 0h64v-64h-64v64z" />
<glyph unicode="&#xf02a;" glyph-name="barcode" d="M0 0v768h36v-768h-36zM53.715 0.547v767.454h18.285v-767.454h-18.285zM108 0.547v767.454h17.715v-767.454h-17.715zM197.715 0.547v767.454h17.713v-767.454h-17.713zM269.714 0.547v767.454h35.428v-767.454h-35.428zM359.428 0.547v767.454h17.715v-767.454h-17.715zM395.428 0.547v767.454h17.715v-767.454h-17.715zM431.428 0.547v767.454h17.715v-767.454h-17.715zM502.858 0.547v767.454h36v-767.454h-36zM592.572 0.547v767.454h36v-767.454h-36zM664.57 0.547v767.454h36.002v-767.454h-36.002zM736.572 0.547v767.454h36.002v-767.454h-36.002zM790.286 0.547v767.454h36v-767.454h-36zM880.572 0.547v767.454h53.713v-767.454h-53.713zM952 0.547v767.454h18.285v-767.454h-18.285zM988 0v768h36v-768h-36z" />
<glyph unicode="&#xf02b;" glyph-name="tag" d="M995.882 444.118c37.488-37.488 37.488-98.273 0-135.764l-408.236-408.236c-37.49-37.49-98.275-37.488-135.764 0l-423.766 423.766c-15.52 15.52-28.117 45.932-28.117 67.881v408.236c0 53.020 42.98 96 96 96h408.236c21.949 0 52.361-12.598 67.881-28.117zM950.628 353.608c12.475 12.477 12.475 32.779 0 45.256l-423.766 423.766c-6.043 6.043-14.080 9.371-22.627 9.371h-408.236c-17.645 0-32-14.355-32-32v-408.322c0-7.297 4.199-17.395 9.371-22.539l423.768-423.768c12.504-12.506 32.768-12.484 45.254 0zM288 648c-22.057 0-40-17.943-40-40s17.943-40 40-40 40 17.943 40 40-17.943 40-40 40zM288 704c53.020 0 96-42.98 96-96s-42.98-96-96-96-96 42.98-96 96 42.98 96 96 96z" />
<glyph unicode="&#xf02c;" glyph-name="tags" horiz-adv-x="1280" d="M1251.882 308.354l-408.236-408.236c-37.492-37.49-98.277-37.488-135.764 0l-3.551 3.551 45.254 45.254 3.551-3.551c12.506-12.506 32.768-12.484 45.254 0l408.236 408.236c12.475 12.479 12.475 32.779 0 45.254l-423.766 423.768c-5.145 5.172-15.242 9.371-22.539 9.371h-39.185l-64 64h103.098c21.949 0 52.361-12.598 67.881-28.117l423.766-423.766c37.49-37.488 37.49-98.273 0.002-135.764zM504.236 832h-408.236c-17.645 0-32-14.355-32-32v-408.236c0-8.547 3.328-16.584 9.371-22.627l423.766-423.766c12.506-12.506 32.768-12.484 45.254 0l408.236 408.236c12.475 12.479 12.475 32.779 0 45.254l-423.766 423.768c-5.145 5.172-15.242 9.371-22.539 9.371h-0.086zM504.236 896c21.949 0 52.361-12.598 67.881-28.117l423.766-423.766c37.488-37.488 37.488-98.273 0-135.764l-408.236-408.236c-37.492-37.49-98.277-37.488-135.764 0l-423.766 423.766c-15.52 15.52-28.117 45.932-28.117 67.881v408.236c0 53.020 42.98 96 96 96h408.236zM288 648c-22.057 0-40-17.943-40-40s17.943-40 40-40 40 17.943 40 40-17.943 40-40 40zM288 704c53.020 0 96-42.98 96-96s-42.98-96-96-96-96 42.98-96 96 42.98 96 96 96z" />
<glyph unicode="&#xf02d;" glyph-name="book" horiz-adv-x="896" d="M712 576h-336c-13.199 0-24 10.801-24 24v16c0 13.199 10.801 24 24 24h336c13.199 0 24-10.801 24-24v-16c0-13.199-10.801-24-24-24zM736 472c0-13.199-10.801-24-24-24h-336c-13.199 0-24 10.801-24 24v16c0 13.199 10.801 24 24 24h336c13.199 0 24-10.801 24-24v-16zM865.4-64h6.6c13.199 0 24-10.801 24-24v-16c0-13.199-10.801-24-24-24h-712c-88.4 0-160 71.6-160 160v704c0 88.4 71.6 160 160 160h688c26.6 0 48-21.4 48-48v-736c0-20-12.4-37.199-29.801-44.4-7.199-32.199-8.799-91.199-0.799-131.6zM256 128h576v704h-576v-704zM64 96c26.801 20 60 32 96 32h32v704h-32c-53 0-96-43-96-96v-640zM808.6-64c-6.199 40.801-5.799 90.4 0 128h-648.6c-128 0-128-128 0-128h648.6z" />
<glyph unicode="&#xf02e;" glyph-name="bookmark" horiz-adv-x="768" d="M672 896c53.020 0 96-42.98 96-96v-928l-384 224-384-224v928c0 53.020 42.98 96 96 96h576zM704-16.574v816.574c0 17.645-14.355 32-32 32h-576c-17.645 0-32-14.355-32-32v-816.574l320 186.666z" />
<glyph unicode="&#xf02f;" glyph-name="print" d="M864 512c88.359 0 160-71.641 160-160v-192c0-17.68-14.32-32-32-32h-160v-224c0-17.68-14.32-32-32-32h-576c-17.68 0-32 14.32-32 32v224h-160c-17.68 0-32 14.32-32 32v192c0 88.359 71.641 160 160 160h32v320c0 35.34 27.279 64 60.961 64h360.52c16.98 0 33.26-6.74 45.26-18.74l154.52-154.5c12-12.020 18.74-28.279 18.74-45.26v-165.5h32zM640 805.5v-101.5h101.5zM256.24 832l-0.201-320h511.96v128h-128c-35.34 0-64 28.66-64 64v128h-319.76zM768-64v192h-512v-192h512zM960 192v160c0 52.939-43.061 96-96 96h-704c-52.939 0-96-43.061-96-96v-160h896zM800 368c26.5 0 48-21.48 48-48 0-26.5-21.5-48-48-48s-48 21.5-48 48c0 26.52 21.5 48 48 48z" />
<glyph unicode="&#xf030;" glyph-name="camera" d="M648.6 768h-262c-13.4 0-25.4-8.4-30-20.801l-40.199-107.199h-220.4c-17.6 0-32-14.4-32-32v-576c0-17.6 14.4-32 32-32h832c17.6 0 32 14.4 32 32v576c0 17.6-14.4 32-32 32h-220.2l-44.201 117.6c-2.4 6.201-8.4 10.4-15 10.4zM648.6 832c33.4 0 63.201-20.6 74.801-52l28.6-76h176c53 0 96-43 96-96v-576c0-53-43-96-96-96h-832c-53 0-96 43-96 96v576c0 53 43 96 96 96h176l24.801 65.801c14 37.398 49.799 62.199 89.799 62.199h262zM512 80c-132.4 0-240 107.6-240 240s107.6 240 240 240 240-107.6 240-240-107.6-240-240-240zM512 496c-97 0-176-79-176-176s79-176 176-176 176 79 176 176-79 176-176 176z" />
<glyph unicode="&#xf031;" glyph-name="font" horiz-adv-x="896" d="M465.188 832c9.189 0 19.26-6.986 22.479-15.592l305.388-816.408h46.945c13.254 0 24-10.746 24-24v-16c0-13.254-10.746-24-24-24h-176c-13.254 0-24 10.746-24 24v16c0 13.254 10.746 24 24 24h56.127l-90.492 240.92h-364.506l-89.303-240.92h56.174c13.254 0 24-10.746 24-24v-16c0-13.254-10.746-24-24-24h-176c-13.254 0-24 10.746-24 24v16c0 13.254 10.746 24 24 24h46.945l305.39 816.408c3.219 8.607 13.287 15.592 22.477 15.592h34.375zM289.272 305.32h316.226l-150.195 402.572c-2.984 7.676-5.402 15.586-7.303 22.764-1.908-7.201-4.336-15.141-7.336-22.854z" />
<glyph unicode="&#xf032;" glyph-name="bold" horiz-adv-x="640" d="M498.278 411.744c85.33-30.301 141.723-118.053 141.723-223.044 0-105.193-55.604-196.262-141.654-232.004-43.742-18.342-95.117-20.695-134.986-20.695h-339.36c-13.254 0-24 10.746-24 24v16c0 13.254 10.746 24 24 24h39.9v768h-39.9c-13.254 0-24 10.746-24 24v16c0 13.254 10.746 24 24 24h328.020c62.936 0 113.102-11.010 153.369-33.66 60.332-33.674 99.33-110.258 99.33-195.1 0-84.49-38.598-153.52-106.441-191.496zM132.082 767.598v-328.718h241.358c96.049 0 160.578 66.557 160.578 165.619 0 60.643-24.523 110.838-67.283 137.717-27.326 17.078-64.855 25.383-114.715 25.383h-219.938zM466.47 16.229c64.43 26.018 102.83 89.533 102.83 169.949 0 112.629-75.674 188.303-188.303 188.303h-248.916v-374.080h231.278c44.213 0 77.941 5.178 103.111 15.828z" />
<glyph unicode="&#xf033;" glyph-name="italic" horiz-adv-x="512" d="M205.582 768c-15.156 0-26.518 13.877-23.527 28.736l3.219 16c2.141 10.633 12.682 19.264 23.529 19.264h258.894c15.156 0 26.52-13.877 23.527-28.736l-3.221-16c-2.141-10.633-12.682-19.264-23.527-19.264h-100.023l-149.727-768h90.43c15.156 0 26.518-13.877 23.527-28.736l-3.219-16c-2.141-10.633-12.682-19.264-23.529-19.264h-257.632c-15.156 0-26.52 13.877-23.527 28.736l3.221 16c2.141 10.633 12.682 19.264 23.527 19.264h98.762l149.727 768h-90.43z" />
<glyph unicode="&#xf034;" glyph-name="text-height" horiz-adv-x="896" d="M0 664v144c0 13.254 10.746 24 24 24h528c13.254 0 24-10.746 24-24v-144c0-13.254-10.746-24-24-24h-16.961c-13.254 0-24 10.746-24 24v104h-189.93v-768h86.891c13.254 0 24-10.746 24-24v-16c0-13.254-10.746-24-24-24h-240c-13.254 0-24 10.746-24 24v16c0 13.254 10.746 24 24 24h86.889v768h-189.928v-104c0-13.254-10.746-24-24-24h-16.961c-13.254 0-24 10.746-24 24zM787.74 826.246c6.396 7.676 18.188 7.668 24.572 0l79.969-96.002c8.582-10.303 1.396-26.244-12.285-26.244h-47.996v-640h47.943c15.078 0 20.232-16.703 12.287-26.244l-79.969-96.002c-6.396-7.676-18.188-7.666-24.574 0l-79.969 96.002c-8.582 10.303-1.396 26.244 12.285 26.244h47.996v640h-47.939c-15.080 0-20.232 16.703-12.289 26.244z" />
<glyph unicode="&#xf035;" glyph-name="text-width" horiz-adv-x="896" d="M0 664v144c0 13.254 10.746 24 24 24h848c13.254 0 24-10.746 24-24v-144c0-13.254-10.746-24-24-24h-16.961c-13.254 0-24 10.746-24 24v104h-349.928v-512h86.889c13.254 0 24-10.746 24-24v-16c0-13.254-10.746-24-24-24h-240c-13.254 0-24 10.746-24 24v16c0 13.254 10.746 24 24 24h86.889v512h-349.928v-104c0-13.254-10.746-24-24-24h-16.961c-13.254 0-24 10.746-24 24zM890.246 44.26c7.676-6.396 7.668-18.188 0-24.572l-96.002-79.969c-10.303-8.582-26.244-1.396-26.244 12.285v47.996h-640v-47.941c0-15.078-16.703-20.232-26.244-12.287l-96.002 79.969c-7.676 6.396-7.666 18.188 0 24.574l96.002 79.967c10.303 8.582 26.244 1.396 26.244-12.285v-47.996h640v47.941c0 15.078 16.703 20.232 26.244 12.287z" />
<glyph unicode="&#xf036;" glyph-name="align-left" horiz-adv-x="896" d="M576 792v-48c0-6.623-5.377-12-12-12h-552c-6.623 0-12 5.377-12 12v48c0 6.623 5.377 12 12 12h552c6.623 0 12-5.377 12-12zM12 476c-6.623 0-12 5.377-12 12v48c0 6.623 5.377 12 12 12h872c6.623 0 12-5.377 12-12v-48c0-6.623-5.377-12-12-12h-872zM12-36c-6.623 0-12 5.377-12 12v48c0 6.623 5.377 12 12 12h872c6.623 0 12-5.377 12-12v-48c0-6.623-5.377-12-12-12h-872zM564 292c6.623 0 12-5.377 12-12v-48c0-6.623-5.377-12-12-12h-552c-6.623 0-12 5.377-12 12v48c0 6.623 5.377 12 12 12h552z" />
<glyph unicode="&#xf037;" glyph-name="align-center" horiz-adv-x="896" d="M704 792v-48c0-6.623-5.377-12-12-12h-488c-6.623 0-12 5.377-12 12v48c0 6.623 5.377 12 12 12h488c6.623 0 12-5.377 12-12zM12 476c-6.623 0-12 5.377-12 12v48c0 6.623 5.377 12 12 12h872c6.623 0 12-5.377 12-12v-48c0-6.623-5.377-12-12-12h-872zM12-36c-6.623 0-12 5.377-12 12v48c0 6.623 5.377 12 12 12h872c6.623 0 12-5.377 12-12v-48c0-6.623-5.377-12-12-12h-872zM692 292c6.623 0 12-5.377 12-12v-48c0-6.623-5.377-12-12-12h-488c-6.623 0-12 5.377-12 12v48c0 6.623 5.377 12 12 12h488z" />
<glyph unicode="&#xf038;" glyph-name="align-right" horiz-adv-x="896" d="M320 744v48c0 6.623 5.377 12 12 12h552c6.623 0 12-5.377 12-12v-48c0-6.623-5.377-12-12-12h-552c-6.623 0-12 5.377-12 12zM12 476c-6.623 0-12 5.377-12 12v48c0 6.623 5.377 12 12 12h872c6.623 0 12-5.377 12-12v-48c0-6.623-5.377-12-12-12h-872zM12-36c-6.623 0-12 5.377-12 12v48c0 6.623 5.377 12 12 12h872c6.623 0 12-5.377 12-12v-48c0-6.623-5.377-12-12-12h-872zM332 220c-6.623 0-12 5.377-12 12v48c0 6.623 5.377 12 12 12h552c6.623 0 12-5.377 12-12v-48c0-6.623-5.377-12-12-12h-552z" />
<glyph unicode="&#xf039;" glyph-name="align-justify" horiz-adv-x="896" d="M0 744v48c0 6.623 5.377 12 12 12h872c6.623 0 12-5.377 12-12v-48c0-6.623-5.377-12-12-12h-872c-6.623 0-12 5.377-12 12zM12 476c-6.623 0-12 5.377-12 12v48c0 6.623 5.377 12 12 12h872c6.623 0 12-5.377 12-12v-48c0-6.623-5.377-12-12-12h-872zM12-36c-6.623 0-12 5.377-12 12v48c0 6.623 5.377 12 12 12h872c6.623 0 12-5.377 12-12v-48c0-6.623-5.377-12-12-12h-872zM12 220c-6.623 0-12 5.377-12 12v48c0 6.623 5.377 12 12 12h872c6.623 0 12-5.377 12-12v-48c0-6.623-5.377-12-12-12h-872z" />
<glyph unicode="&#xf03a;" glyph-name="list" d="M1012 668h-744c-6.623 0-12 5.377-12 12v48c0 6.623 5.377 12 12 12h744c6.623 0 12-5.377 12-12v-48c0-6.623-5.377-12-12-12zM1024 360c0-6.623-5.377-12-12-12h-744c-6.623 0-12 5.377-12 12v48c0 6.623 5.377 12 12 12h744c6.623 0 12-5.377 12-12v-48zM1024 40c0-6.623-5.377-12-12-12h-744c-6.623 0-12 5.377-12 12v48c0 6.623 5.377 12 12 12h744c6.623 0 12-5.377 12-12v-48zM168 656c0-13.254-10.746-24-24-24h-96c-13.254 0-24 10.746-24 24v96c0 13.254 10.746 24 24 24h96c13.254 0 24-10.746 24-24v-96zM168 336c0-13.254-10.746-24-24-24h-96c-13.254 0-24 10.746-24 24v96c0 13.254 10.746 24 24 24h96c13.254 0 24-10.746 24-24v-96zM168 16c0-13.254-10.746-24-24-24h-96c-13.254 0-24 10.746-24 24v96c0 13.254 10.746 24 24 24h96c13.254 0 24-10.746 24-24v-96z" />
<glyph unicode="&#xf03b;" glyph-name="outdent" horiz-adv-x="896" d="M0 744v48c0 6.623 5.377 12 12 12h872c6.623 0 12-5.377 12-12v-48c0-6.623-5.377-12-12-12h-872c-6.623 0-12 5.377-12 12zM396 476c-6.623 0-12 5.377-12 12v48c0 6.623 5.377 12 12 12h488c6.623 0 12-5.377 12-12v-48c0-6.623-5.377-12-12-12h-488zM12-36c-6.623 0-12 5.377-12 12v48c0 6.623 5.377 12 12 12h872c6.623 0 12-5.377 12-12v-48c0-6.623-5.377-12-12-12h-872zM396 220c-6.623 0-12 5.377-12 12v48c0 6.623 5.377 12 12 12h488c6.623 0 12-5.377 12-12v-48c0-6.623-5.377-12-12-12h-488zM256 575.974v-383.946c0-28.539-34.566-42.691-54.627-22.625l-192 191.973c-12.496 12.494-12.496 32.758 0 45.254l192 191.973c20.037 20.033 54.627 5.959 54.627-22.629zM192 269.254v229.492l-114.746-114.746z" />
<glyph unicode="&#xf03c;" glyph-name="indent" horiz-adv-x="896" d="M0 744v48c0 6.623 5.377 12 12 12h872c6.623 0 12-5.377 12-12v-48c0-6.623-5.377-12-12-12h-872c-6.623 0-12 5.377-12 12zM332 476c-6.623 0-12 5.377-12 12v48c0 6.623 5.377 12 12 12h552c6.623 0 12-5.377 12-12v-48c0-6.623-5.377-12-12-12h-552zM12-36c-6.623 0-12 5.377-12 12v48c0 6.623 5.377 12 12 12h872c6.623 0 12-5.377 12-12v-48c0-6.623-5.377-12-12-12h-872zM332 220c-6.623 0-12 5.377-12 12v48c0 6.623 5.377 12 12 12h552c6.623 0 12-5.377 12-12v-48c0-6.623-5.377-12-12-12h-552zM0 192.025v383.948c0 28.539 34.566 42.691 54.627 22.625l192-191.971c12.496-12.496 12.496-32.76 0-45.256l-192-191.973c-20.035-20.035-54.627-5.961-54.627 22.627zM64 498.746v-229.492l114.746 114.746z" />
<glyph unicode="&#xf03d;" glyph-name="video" horiz-adv-x="1152" d="M1087.8 704c33.199 0 64.199-26 64-63v-514c0-37-31-63-64.201-63-12.199 0-25 3.4-36.4 11.4l-219.2 139.799v-119.6c0-52.799-46.4-95.6-103.6-95.6h-624.8c-57.199 0-103.6 42.801-103.6 95.6v576.8c0 52.799 46.4 95.6 103.6 95.6h624.8c57.199 0 103.6-42.801 103.6-95.6v-119.6l219.4 139.799c11.4 7.801 24 11.4 36.4 11.4zM768 95.6v576.8c0 17.199-18.199 31.6-39.6 31.6h-624.8c-21.4 0-39.6-14.4-39.6-31.6v-576.8c0-17.199 18.199-31.6 39.6-31.6h624.8c21.4 0 39.6 14.4 39.6 31.6zM1088 127v513l-256-163v-185.801l253.6-161.6z" />
<glyph unicode="&#xf03e;" glyph-name="image" d="M928 768c53.020 0 96-42.98 96-96v-576c0-53.020-42.98-96-96-96h-832c-53.020 0-96 42.98-96 96v576c0 53.020 42.98 96 96 96h832zM960 96v576c0 17.645-14.355 32-32 32h-832c-17.645 0-32-14.355-32-32v-576c0-17.645 14.355-32 32-32h832c17.645 0 32 14.355 32 32zM224 432c-61.855 0-112 50.145-112 112s50.145 112 112 112 112-50.145 112-112-50.145-112-112-112zM224 592c-26.469 0-48-21.531-48-48s21.531-48 48-48 48 21.531 48 48-21.531 48-48 48zM638.058 545.942c18.746 18.744 49.137 18.744 67.883 0l176-176c9-9.002 14.059-21.211 14.059-33.941v-184c0-13.254-10.746-24-24-24h-720c-13.254 0-24 10.746-24 24v56c0 10.975 6.299 26.18 14.061 33.939l176 176c18.744 18.746 49.135 18.746 67.881 0l62.059-62.057zM832 192v137.371l-160 160-224-224-96 96-160-160v-9.371h640z" />
<glyph unicode="&#xf040;" glyph-name="pencil" d="M986.51 783.528c49.986-49.984 49.986-131.031 0.002-181.020l-704.834-704.834-228.368-25.373c-30.568-3.398-56.404 22.436-53.008 53.008l25.373 228.368 704.834 704.832c49.99 49.988 131.035 49.986 181.020 0zM796.118 502.628l-165.488 165.488-448.12-448.118h69.49v-96h96v-69.49zM252.294-41.195l39.705 39.705v69.49h-96v96h-69.49l-39.705-39.705-13.111-117.99 60.611-60.611zM941.254 647.764c25.014 25.016 25.012 65.498 0 90.51l-74.98 74.98c-25.014 25.014-65.5 25.010-90.51 0l-99.881-99.883 165.488-165.488z" />
<glyph unicode="&#xf041;" glyph-name="map-marker" horiz-adv-x="768" d="M384 896c212.078 0 384-171.922 384-384 0-154.826-53.939-198.062-344.534-619.34-19.072-27.549-59.863-27.545-78.932 0-290.596 421.278-344.536 464.514-344.536 619.34 0 212.078 171.922 384 384 384zM384-51.861c278.616 402.922 320 434.88 320 563.862 0 85.477-33.285 165.834-93.727 226.274-60.439 60.441-140.797 93.727-226.274 93.727s-165.834-33.285-226.274-93.727c-60.441-60.439-93.727-140.797-93.727-226.274 0-128.988 41.41-160.977 320-563.862z" />
<glyph unicode="&#xf042;" glyph-name="adjust" d="M512 816c-237.326 0-432-192.109-432-432 0-237.326 192.109-432 432-432 237.326 0 432 192.109 432 432 0 237.326-192.109 432-432 432zM512 880c273.934 0 496-222.066 496-496s-222.066-496-496-496-496 222.066-496 496 222.066 496 496 496zM448 631.98c-107.711-27.6-192-126-192-247.98s84.289-220.38 192-247.98v495.96zM512 704v-640c-176.732 0-320 143.268-320 320s143.268 320 320 320z" />
<glyph unicode="&#xf043;" glyph-name="tint" horiz-adv-x="704" d="M410.44 851.82c93.98-316.96 293.56-400.14 293.56-623.64 0-196.879-157.439-356.18-352-356.18s-352 159.301-352 356.18c0 222.38 200.020 308.122 293.56 623.64 8.9 29.779 33.68 44.18 58.379 44.18 25.281 0 50.48-15.061 58.5-44.18zM352-64c158.801 0 288 131.080 288 292.18 0 97.221-45.881 162.781-109.359 253.542-58.48 83.539-130.941 187.119-178.602 342.16-47.68-154.561-120-258.202-178.359-341.82-63.68-91.24-109.68-157.16-109.68-253.88 0-161.1 129.199-292.18 288-292.18zM352 64c17.68 0 32-14.32 32-32s-14.32-32-32-32c-123.5 0-224 100.5-224 224 0 17.68 14.32 32 32 32s32-14.32 32-32c0-88.221 71.76-160 160-160z" />
<glyph unicode="&#xf044;" glyph-name="edit" horiz-adv-x="1152" d="M835.6 265l40 40c7.6 7.6 20.4 2.199 20.4-8.4v-328.6c0-53-43-96-96-96h-704c-53 0-96 43-96 96v704c0 53 43 96 96 96h584.6c10.6 0 16-13 8.4-20.4l-40-40c-2.199-2.199-5.4-3.6-8.4-3.6h-544.6c-17.6 0-32-14.4-32-32v-704c0-17.6 14.4-32 32-32h704c17.6 0 32 14.4 32 32v288.6c0 3.201 1.199 6.201 3.6 8.4zM1127.4 647.4l-625-625-199.801-22.201c-26.799-3-49.4 19.602-46.4 46.4l22.201 199.801 625 625c32.799 32.799 86 32.799 118.799 0l105.201-105.201c32.799-32.799 32.799-86 0-118.799zM940.2 550.6l-133.398 133.4-467.202-467-16.6-150.199 150.199 16.6zM1082.2 721l-105.199 105.199c-7.6 7.602-20.4 8-28.199 0l-96.801-96.799 133.4-133.4 96.799 96.801c7.801 7.6 7.801 20.398 0 28.199z" />
<glyph unicode="&#xf047;" glyph-name="arrows" d="M675.564 26.592l-146.594-147.564c-9.373-9.371-24.568-9.371-33.943 0l-146.592 147.564c-9.371 9.373-9.371 24.568 0 33.939l14.141 14.141c9.371 9.373 24.568 9.373 33.941 0l81.482-82.445h2v359.774h-359.774v-2l82.447-81.482c9.373-9.371 9.373-24.568 0-33.941l-14.143-14.141c-9.371-9.371-24.566-9.371-33.939 0l-147.562 146.594c-9.371 9.373-9.371 24.568 0 33.943l147.564 146.594c9.373 9.371 24.568 9.371 33.941 0l14.143-14.143c9.373-9.371 9.373-24.568 0-33.941l-82.451-81.482v-2h359.774v359.774h-2l-81.482-82.447c-9.371-9.373-24.568-9.373-33.941 0l-14.141 14.143c-9.371 9.371-9.373 24.566 0 33.939l146.594 147.564c9.373 9.371 24.568 9.371 33.943 0l146.594-147.564c9.371-9.373 9.371-24.568 0-33.941l-14.143-14.143c-9.371-9.373-24.568-9.373-33.941 0l-81.482 82.449h-2v-359.774h359.774v2l-82.447 81.482c-9.373 9.371-9.373 24.568 0 33.941l14.143 14.141c9.371 9.371 24.566 9.371 33.939 0l147.564-146.594c9.373-9.373 9.371-24.568 0-33.943l-147.564-146.594c-9.373-9.371-24.568-9.371-33.939 0l-14.143 14.141c-9.373 9.371-9.373 24.568 0 33.941l82.447 81.484v2h-359.774v-359.774h2l81.482 82.447c9.371 9.373 24.568 9.373 33.941 0l14.141-14.143c9.371-9.369 9.371-24.564 0-33.939z" />
<glyph unicode="&#xf048;" glyph-name="step-backward" horiz-adv-x="896" d="M152-62c-13.199 0-24 10.801-24 24v848c0 13.199 10.801 24 24 24h16c13.199 0 24-10.801 24-24v-382.8c2.199 2.4 4.4 4.602 7 6.801l464 385.2c41.199 34.4 105 5.602 105-49.199v-767.8c0-54.799-63.801-83.6-105-49.199l-464 382.8c-2.6 2-4.801 4.398-7 6.799v-380.6c0-13.199-10.801-24-24-24h-16zM233 384.8l471-382.8v768l-0.4-0.4z" />
<glyph unicode="&#xf049;" glyph-name="fast-backward" d="M24 2c-13.199 0-24 10.801-24 24v720c0 13.199 10.801 24 24 24h16c13.199 0 24-10.801 24-24v-317.8c1.801 2 3.801 4 6 5.801l401 321c41.199 34.4 105 5.6 105-49.199v-237.602l343 287c41.199 34.4 105 5.602 105-49.199v-640c0-54.801-63.801-83.6-105-49.199l-343 284.798v-235.6c0-54.801-63.801-83.6-105-49.199l-401 318.798c-2.199 1.801-4.199 3.801-6 5.801v-315.4c0-13.199-10.801-24-24-24h-16zM585 384.8l0.199-0.201 0.201-0.199 374.6-318.4v640l-374.6-320.999zM122 385.6v-1.6l390-318v640l-0.4-0.4z" />
<glyph unicode="&#xf04a;" glyph-name="backward" d="M535 333.8c-30.6 25.398-30.6 72.6 0 98.199l384 321.2c41.199 34.4 105 5.602 105-49.199v-639.8c0-54.799-63.801-83.6-105-49.199zM576 382.8l384-318.8v640zM23 333.8c-30.6 25.398-30.6 72.6 0 98.199l384 321.2c41.199 34.4 105 5.602 105-49.199v-639.8c0-54.799-63.801-83.6-105-49.199zM64 382.8l384-318.8v640z" />
<glyph unicode="&#xf04b;" glyph-name="play" horiz-adv-x="896" d="M848.8 466.6c63-37 62.799-128.199 0-165.199l-704-416c-63.4-37.6-144.801 7.6-144.801 82.6v832.2c0 83.602 87.6 116.4 144.801 82.602zM816.4 356.4c20.799 12.4 20.799 42.799-0.201 55.199l-704 416.202c-15.398 9.199-48.199 5-48.199-27.602v-832.2c0-25.199 27.199-39.801 48.4-27.6z" />
<glyph unicode="&#xf04c;" glyph-name="pause" horiz-adv-x="896" d="M96-62c-53 0-96 43-96 96v704c0 53 43 96 96 96h192c53 0 96-43 96-96v-704c0-53-43-96-96-96h-192zM64 738v-704c0-17.6 14.4-32 32-32h192c17.6 0 32 14.4 32 32v704c0 17.6-14.4 32-32 32h-192c-17.6 0-32-14.4-32-32zM608-62c-53 0-96 43-96 96v704c0 53 43 96 96 96h192c53 0 96-43 96-96v-704c0-53-43-96-96-96h-192zM576 738v-704c0-17.6 14.4-32 32-32h192c17.6 0 32 14.4 32 32v704c0 17.6-14.4 32-32 32h-192c-17.6 0-32-14.4-32-32z" />
<glyph unicode="&#xf04d;" glyph-name="stop" horiz-adv-x="896" d="M800 832c53 0 96-43 96-96v-704c0-53-43-96-96-96h-704c-53 0-96 43-96 96v704c0 53 43 96 96 96h704zM832 32v704c0 17.6-14.4 32-32 32h-704c-17.6 0-32-14.4-32-32v-704c0-17.6 14.4-32 32-32h704c17.6 0 32 14.4 32 32z" />
<glyph unicode="&#xf04e;" glyph-name="forward" d="M489 434.2c30.6-25.398 30.6-72.6 0-98.398l-384-321c-41.199-34.4-105-5.602-105 49.199v640c0 54.801 63.801 83.4 105 49.199zM448 385.2l-384 318.8v-640zM1001 434.2c30.6-25.398 30.6-72.6 0-98.398l-384-321c-41.199-34.4-105-5.602-105 49.199v640c0 54.801 63.801 83.4 105 49zM960 385.2l-384 318.8v-640z" />
<glyph unicode="&#xf050;" glyph-name="fast-forward" d="M1000 770c13.199 0 24-10.801 24-24v-720c0-13.199-10.801-24-24-24h-16c-13.199 0-24 10.801-24 24v317.8c-1.801-2-3.801-4-6-5.801l-401-321.2c-41.199-34.4-105-5.602-105 49.199v237.6l-343-286.798c-41.199-34.4-105-5.602-105 49.199v640c0 54.801 63.801 83.4 105 49.199l343-284.798v235.6c0 54.801 63.801 83.4 105 49.199l401-318.798c2.199-1.801 4.199-3.801 6-5.801v315.4c0 13.199 10.801 24 24 24h16zM439 387.2l-0.199 0.201-0.201 0.199-374.6 318.4v-640l374.6 320.999zM902 386.2v1.801l-390 318v-640h0.199l0.201 0.199z" />
<glyph unicode="&#xf051;" glyph-name="step-forward" horiz-adv-x="896" d="M744 834c13.199 0 24-10.801 24-24v-848c0-13.199-10.801-24-24-24h-16c-13.199 0-24 10.801-24 24v382.8c-2.199-2.4-4.4-4.602-7-6.801l-464-385.2c-41.199-34.4-105-5.602-105 49.199v768c0 54.801 63.801 83.4 105 49l464-382.8c2.6-2 4.801-4.398 7-6.799v380.6c0 13.199 10.801 24 24 24h16zM663 387.2l-471 382.8v-768l0.4 0.4z" />
<glyph unicode="&#xf052;" glyph-name="eject" horiz-adv-x="896" d="M870.644 416.87c56.395-61.521 12.535-160.869-70.766-160.869h-703.774c-83.457 0-127.055 99.465-70.766 160.869l351.892 384.016c38.031 41.488 103.506 41.484 141.533 0zM799.878 320c27.738 0 42.328 33.178 23.588 53.623l-351.886 384.026c-12.674 13.826-34.523 13.783-47.17-0.010l-351.886-384.006c-18.756-20.463-4.15-53.633 23.582-53.633h703.774zM896 96v-64c0-53.020-42.98-96-96-96h-704c-53.020 0-96 42.98-96 96v64c0 53.020 42.98 96 96 96h704c53.020 0 96-42.98 96-96zM800 128h-704c-17.645 0-32-14.355-32-32v-64c0-17.646 14.355-32 32-32h704c17.645 0 32 14.354 32 32v64c0 17.645-14.355 32-32 32z" />
<glyph unicode="&#xf053;" glyph-name="chevron-left" horiz-adv-x="512" d="M476.95-55.070c-9.371-9.373-24.566-9.373-33.939-0.002l-422.102 422.1c-9.373 9.375-9.373 24.57 0 33.943l422.102 422.1c9.373 9.371 24.568 9.371 33.939 0l14.143-14.141c9.373-9.373 9.373-24.57 0-33.941l-390.986-390.988 390.986-390.988c9.373-9.373 9.373-24.57 0-33.941z" />
<glyph unicode="&#xf054;" glyph-name="chevron-right" horiz-adv-x="512" d="M35.051 823.070c9.371 9.373 24.566 9.373 33.939 0l422.102-422.098c9.373-9.375 9.373-24.57 0-33.943l-422.102-422.1c-9.373-9.371-24.568-9.371-33.939 0l-14.143 14.141c-9.373 9.373-9.373 24.57 0 33.941l390.986 390.988-390.986 390.988c-9.373 9.373-9.373 24.57 0 33.941z" />
<glyph unicode="&#xf055;" glyph-name="plus-circle" d="M768 396v-24c0-13.199-10.801-24-24-24h-196v-196c0-13.199-10.801-24-24-24h-24c-13.199 0-24 10.801-24 24v196h-196c-13.199 0-24 10.801-24 24v24c0 13.199 10.801 24 24 24h196v196c0 13.199 10.801 24 24 24h24c13.199 0 24-10.801 24-24v-196h196c13.199 0 24-10.801 24-24zM1008 384c0-274-222-496-496-496s-496 222-496 496 222 496 496 496 496-222 496-496zM944 384c0 239.8-194.6 432-432 432-239.8 0-432-194.6-432-432 0-239.8 194.6-432 432-432 239.8 0 432 194.6 432 432z" />
<glyph unicode="&#xf056;" glyph-name="minus-circle" d="M280 348c-13.199 0-24 10.801-24 24v24c0 13.199 10.801 24 24 24h464c13.199 0 24-10.801 24-24v-24c0-13.199-10.801-24-24-24h-464zM1008 384c0-274-222-496-496-496s-496 222-496 496 222 496 496 496 496-222 496-496zM944 384c0 239.8-194.6 432-432 432-239.8 0-432-194.6-432-432 0-239.8 194.6-432 432-432 239.8 0 432 194.6 432 432z" />
<glyph unicode="&#xf057;" glyph-name="times-circle" d="M512 880c274 0 496-222 496-496s-222-496-496-496-496 222-496 496 222 496 496 496zM512-48c239.8 0 432 194.6 432 432 0 239.8-194.6 432-432 432-239.8 0-432-194.6-432-432 0-239.8 194.6-432 432-432zM701.6 522.6l-138.6-138.6 138.6-138.6c9.4-9.4 9.4-24.6 0-34l-17-17c-9.4-9.4-24.6-9.4-34 0l-138.6 138.6-138.6-138.6c-9.4-9.4-24.6-9.4-34 0l-17 17c-9.4 9.4-9.4 24.6 0 34l138.6 138.6-138.6 138.6c-9.4 9.4-9.4 24.6 0 34l17 17c9.4 9.4 24.6 9.4 34 0l138.6-138.6 138.6 138.6c9.4 9.4 24.6 9.4 34 0l17-17c9.201-9.4 9.201-24.6 0-34z" />
<glyph unicode="&#xf058;" glyph-name="check-circle" d="M512 880c273.934 0 496-222.066 496-496s-222.066-496-496-496-496 222.066-496 496 222.066 496 496 496zM512-48c239.89 0 432 194.674 432 432 0 239.89-194.672 432-432 432-239.89 0-432-194.674-432-432 0-239.89 194.672-432 432-432zM795.26 501.922l-360.958-358.064c-9.41-9.334-24.607-9.273-33.941 0.137l-171.756 173.145c-9.334 9.41-9.273 24.605 0.137 33.939l17.039 16.902c9.41 9.334 24.607 9.273 33.941-0.137l137.951-139.066 326.882 324.26c9.41 9.334 24.605 9.275 33.939-0.135l16.902-17.041c9.336-9.41 9.273-24.605-0.137-33.939z" />
<glyph unicode="&#xf059;" glyph-name="question-circle" d="M512 216c30.928 0 56-25.072 56-56s-25.072-56-56-56-56 25.072-56 56 25.072 56 56 56zM527.34 264h-32c-13.254 0-24 10.746-24 24v0.762c0 140.686 154.881 127.238 154.881 214.816 0 40.031-35.523 80.422-114.881 80.422-58.287 0-88.529-19.299-118.422-57.385-7.816-9.959-22.107-11.988-32.496-4.752l-26.268 18.301c-11.25 7.838-13.721 23.541-5.291 34.354 42.453 54.455 92.82 89.482 182.477 89.482 104.641 0 194.881-59.502 194.881-160.422 0-134.828-154.881-127.697-154.881-214.816v-0.762c0-13.254-10.746-24-24-24zM512 816c-238.796 0-432-193.594-432-432 0-238.876 193.512-432 432-432 238.78 0 432 193.418 432 432 0 239.85-194.758 432-432 432zM512 880c273.914 0 496-222.166 496-496 0-273.994-222.086-496-496-496s-496 222.006-496 496c0 273.834 222.086 496 496 496z" />
<glyph unicode="&#xf05a;" glyph-name="info-circle" d="M512 816c-238.796 0-432-193.594-432-432 0-238.876 193.512-432 432-432 238.78 0 432 193.418 432 432 0 239.85-194.758 432-432 432zM512 880c273.914 0 496-222.166 496-496 0-273.994-222.086-496-496-496s-496 222.006-496 496c0 273.834 222.086 496 496 496zM440 192h24v240h-24c-13.254 0-24 10.746-24 24v16c0 13.254 10.746 24 24 24h96c13.254 0 24-10.746 24-24v-280h24c13.254 0 24-10.746 24-24v-16c0-13.254-10.746-24-24-24h-144c-13.254 0-24 10.746-24 24v16c0 13.254 10.746 24 24 24zM512 672c35.346 0 64-28.654 64-64s-28.654-64-64-64-64 28.654-64 64 28.654 64 64 64z" />
<glyph unicode="&#xf05b;" glyph-name="crosshairs" d="M1012 416c6.623 0 12-5.377 12-12v-40c0-6.623-5.377-12-12-12h-69.182c-15.602-213.076-185.742-383.216-398.818-398.818v-69.182c0-6.623-5.377-12-12-12h-40c-6.623 0-12 5.377-12 12v69.182c-213.076 15.602-383.216 185.742-398.818 398.818h-69.182c-6.623 0-12 5.377-12 12v40c0 6.623 5.377 12 12 12h69.182c15.602 213.076 185.742 383.216 398.818 398.818v69.182c0 6.623 5.377 12 12 12h40c6.623 0 12-5.377 12-12v-69.182c213.076-15.602 383.216-185.742 398.818-398.818h69.182zM544 17.391c178.062 15.242 319.422 157.174 334.61 334.61h-130.609c-6.623 0-12 5.377-12 12v40c0 6.623 5.377 12 12 12h130.609c-15.24 178.062-157.174 319.422-334.61 334.61v-130.609c0-6.623-5.377-12-12-12h-40c-6.623 0-12 5.377-12 12v130.609c-178.062-15.242-319.422-157.174-334.61-334.61h130.609c6.623 0 12-5.377 12-12v-40c0-6.623-5.377-12-12-12h-130.609c15.24-178.062 157.174-319.422 334.61-334.61v130.609c0 6.623 5.377 12 12 12h40c6.623 0 12-5.377 12-12v-130.609zM560 384c0-26.51-21.49-48-48-48s-48 21.49-48 48 21.49 48 48 48 48-21.49 48-48z" />
<glyph unicode="&#xf05e;" glyph-name="ban" d="M512 880c273.934 0 496-222.066 496-496s-222.066-496-496-496-496 222.066-496 496 222.066 496 496 496zM206.53 78.529c161.213-161.211 417.88-168.328 587.488-21.799l-609.288 609.286c-146.498-169.572-139.445-426.242 21.799-587.486zM839.27 101.984c146.498 169.572 139.445 426.244-21.799 587.486-161.213 161.209-417.878 168.326-587.486 21.799z" />
<glyph unicode="&#xf060;" glyph-name="arrow-left" horiz-adv-x="896" d="M463.072-55.070c-9.373-9.373-24.568-9.373-33.939-0.002l-422.104 422.1c-9.371 9.375-9.371 24.57 0 33.943l422.104 422.1c9.371 9.371 24.566 9.371 33.939 0l14.143-14.141c9.371-9.373 9.371-24.57 0-33.941l-356.988-356.988h751.774c13.254 0 24-10.746 24-24v-20c0-13.254-10.746-24-24-24h-751.774l356.988-356.988c9.371-9.373 9.371-24.57 0-33.941z" />
<glyph unicode="&#xf061;" glyph-name="arrow-right" horiz-adv-x="896" d="M432.928 823.070c9.373 9.373 24.568 9.373 33.939 0l422.104-422.098c9.371-9.375 9.371-24.57 0-33.943l-422.104-422.1c-9.371-9.371-24.566-9.371-33.939 0l-14.143 14.141c-9.371 9.373-9.371 24.57 0 33.941l356.988 356.988h-751.774c-13.254 0-24 10.746-24 24v20c0 13.254 10.746 24 24 24h751.774l-356.988 356.988c-9.371 9.373-9.371 24.57 0 33.941z" />
<glyph unicode="&#xf062;" glyph-name="arrow-up" horiz-adv-x="896" d="M8.93 368.928c-9.373 9.373-9.373 24.568 0 33.939l422.098 422.104c9.375 9.371 24.57 9.371 33.943 0l422.1-422.102c9.371-9.371 9.371-24.566 0-33.939l-14.141-14.143c-9.373-9.371-24.57-9.371-33.941 0l-356.988 356.986v-751.774c0-13.254-10.746-24-24-24h-20c-13.254 0-24 10.746-24 24v751.774l-356.988-356.988c-9.373-9.371-24.57-9.371-33.941 0z" />
<glyph unicode="&#xf063;" glyph-name="arrow-down" horiz-adv-x="896" d="M887 399c9.4-9.4 9.4-24.4-0.199-34l-422-422.2c-9.4-9.4-24.602-9.4-34 0l-422 422.2c-9.4 9.4-9.4 24.6 0 34l14.199 14.199c9.4 9.4 24.6 9.4 34 0l357-357v751.8c0 13.199 10.801 24 24 24h20c13.199 0 24-10.801 24-24v-751.8l356.8 357c9.398 9.4 24.6 9.4 34 0z" />
<glyph unicode="&#xf064;" glyph-name="share" horiz-adv-x="1152" d="M1129.814 503.3c29.582-30.941 29.582-79.66 0.002-110.602l-351.996-368c-49.439-51.688-137.82-17.178-137.82 55.301v175.68c-308.85-3.623-438.126-33.453-362.38-302.182 16.684-59.035-50.893-104.465-99.359-69.020-66.58 48.68-178.26 159.182-178.26 349.14 0 342.176 309.096 402.070 640 406.042v176.309c0 72.539 88.432 106.932 137.82 55.299zM1083.56 436.94c2.459 2.559 4.455 7.512 4.455 11.061s-1.996 8.502-4.455 11.061l-352 368c-9.859 10.32-27.561 3.463-27.561-11.061v-240c-314.228 0-640-22.359-640-342.38 0-148.799 80-244.34 152.039-297.020-102.666 363.986 145.168 383.4 487.96 383.4v-240c0-14.52 17.693-21.381 27.561-11.061z" />
<glyph unicode="&#xf065;" glyph-name="expand" horiz-adv-x="896" d="M0 536v248c0 26.6 21.4 48 48 48h248c13.199 0 24-10.801 24-24v-16c0-13.199-10.801-24-24-24h-232v-232c0-13.199-10.801-24-24-24h-16c-13.199 0-24 10.801-24 24zM600 832h248c26.6 0 48-21.4 48-48v-248c0-13.199-10.801-24-24-24h-16c-13.199 0-24 10.801-24 24v232h-232c-13.199 0-24 10.801-24 24v16c0 13.199 10.801 24 24 24zM896 232v-248c0-26.6-21.4-48-48-48h-248c-13.199 0-24 10.801-24 24v16c0 13.199 10.801 24 24 24h232v232c0 13.199 10.801 24 24 24h16c13.199 0 24-10.801 24-24zM296-64h-248c-26.6 0-48 21.4-48 48v248c0 13.199 10.801 24 24 24h16c13.199 0 24-10.801 24-24v-232h232c13.199 0 24-10.801 24-24v-16c0-13.199-10.801-24-24-24z" />
<glyph unicode="&#xf066;" glyph-name="compress" horiz-adv-x="896" d="M872 512h-248c-26.6 0-48 21.4-48 48v248c0 13.199 10.801 24 24 24h16c13.199 0 24-10.801 24-24v-232h232c13.199 0 24-10.801 24-24v-16c0-13.199-10.801-24-24-24zM320 560c0-26.6-21.4-48-48-48h-248c-13.199 0-24 10.801-24 24v16c0 13.199 10.801 24 24 24h232v232c0 13.199 10.801 24 24 24h16c13.199 0 24-10.801 24-24v-248zM320-40c0-13.199-10.801-24-24-24h-16c-13.199 0-24 10.801-24 24v232h-232c-13.199 0-24 10.801-24 24v16c0 13.199 10.801 24 24 24h248c26.6 0 48-21.4 48-48v-248zM640-40c0-13.199-10.801-24-24-24h-16c-13.199 0-24 10.801-24 24v248c0 26.6 21.4 48 48 48h248c13.199 0 24-10.801 24-24v-16c0-13.199-10.801-24-24-24h-232v-232z" />
<glyph unicode="&#xf067;" glyph-name="plus" horiz-adv-x="768" d="M752 432c8.84 0 16-7.16 16-16v-64c0-8.84-7.16-16-16-16h-320v-320c0-8.84-7.16-16-16-16h-64c-8.84 0-16 7.16-16 16v320h-320c-8.84 0-16 7.16-16 16v64c0 8.84 7.16 16 16 16h320v320c0 8.84 7.16 16 16 16h64c8.84 0 16-7.16 16-16v-320h320z" />
<glyph unicode="&#xf068;" glyph-name="minus" horiz-adv-x="768" d="M752 432c8.84 0 16-7.16 16-16v-64c0-8.84-7.16-16-16-16h-736c-8.84 0-16 7.16-16 16v64c0 8.84 7.16 16 16 16h736z" />
<glyph unicode="&#xf069;" glyph-name="asterisk" d="M950.62 167.713c11.479-6.627 15.412-21.305 8.785-32.785l-8-13.855c-6.627-11.479-21.305-15.412-32.785-8.785l-374.62 216.288v-432.574c0-13.254-10.746-24-24-24h-16c-13.254 0-24 10.746-24 24v432.574l-374.62-216.288c-11.479-6.627-26.156-2.695-32.785 8.785l-8 13.855c-6.627 11.479-2.695 26.156 8.785 32.785l374.62 216.288-374.62 216.288c-11.479 6.627-15.412 21.305-8.785 32.785l8 13.855c6.627 11.479 21.305 15.412 32.785 8.785l374.62-216.288v432.574c0 13.254 10.746 24 24 24h16c13.254 0 24-10.746 24-24v-432.574l374.62 216.288c11.479 6.627 26.156 2.695 32.785-8.785l8-13.855c6.627-11.479 2.695-26.156-8.785-32.785l-374.62-216.288z" />
<glyph unicode="&#xf06a;" glyph-name="exclamation-circle" d="M512 816c-238.796 0-432-193.594-432-432 0-238.876 193.512-432 432-432 238.78 0 432 193.418 432 432 0 239.85-194.758 432-432 432zM512 880c273.914 0 496-222.166 496-496 0-273.994-222.086-496-496-496s-496 222.006-496 496c0 273.834 222.086 496 496 496zM489.020 640h45.959c13.645 0 24.547-11.363 23.979-25l-14-336c-0.535-12.855-11.111-23-23.979-23h-17.959c-12.865 0-23.443 10.146-23.98 23l-14 336c-0.564 13.637 10.334 25 23.98 25zM512 216c30.928 0 56-25.072 56-56s-25.072-56-56-56-56 25.072-56 56 25.072 56 56 56z" />
<glyph unicode="&#xf06b;" glyph-name="gift" d="M928 608c53 0 96-43 96-96v-192c0-17.6-14.4-32-32-32h-32v-288c0-53-43-96-96-96h-704c-53 0-96 43-96 96v288h-32c-17.6 0-32 14.4-32 32v192c0 53 43 96 96 96h78.6c-19 26.801-30.6 59.801-30.6 96 0 88.199 66.801 160 149 160 84.6 0 133.6-50.801 219-191.6 85.4 140.799 134.4 191.6 219 191.6 82.199 0 149-71.801 149-160 0-36.199-11.6-69.199-30.6-96h78.6zM552.4 615.2l-4.4-7.199h183c46.801 0 85 43 85 96s-38.199 96-85 96c-46.6 0-79.6-18.199-178.6-184.801zM293 800c-46.801 0-85-43-85.199-96 0-53 38.199-96 85-96h183l-4.201 7.199c-99 166.602-131.799 184.801-178.6 184.801zM384-32v320h-256v-288c0-17.6 14.4-32 32-32h224zM384 352v192h-288c-17.6 0-32-14.4-32-32v-160h320zM576-32v576h-128v-576h128zM896 0v288h-256v-320h224c17.6 0 32 14.4 32 32zM960 352v160c0 17.6-14.4 32-32 32h-288v-192h320z" />
<glyph unicode="&#xf06c;" glyph-name="leaf" horiz-adv-x="1152" d="M1092.4 876.6c38-84.799 59.6-188.799 59.6-289.2 0-345-221-626.4-535.2-649.202-13.4-1.398-27-2.199-40.801-2.199-146.6 0-273.8 82.199-338.6 202.8-127.4-115.201-174.4-243-175.201-245.4-6-17.4-25-25.201-40.799-19.6-16.6 5.799-25.4 24.199-19.6 40.799 1 2.6 56.799 155.4 209.398 286-12.398 37.6-19.199 77.6-19.199 119.4 0 212 172 384 384 384h160c126.801 0 237.8 67.199 299.8 175 6.6 11.4 17.398 17 28 17 11.398 0 22.799-6.4 28.6-19.4zM610 1.801c277.8 20.199 478 266.398 478 585.6 0 69.6-11.6 142.4-32.6 207-77.4-97.6-192.801-154.4-319.4-154.4h-160c-176.4 0-320-143.6-320-320 0-26.6 4.199-52 10.4-76.801 111.6 78.801 264 140.801 469.6 140.801 17.6 0 32-14.4 32-32s-14.4-32-32-32c-198.801 0-343.4-62-447-138.801 51.801-106.799 160.4-181.199 287-181.199 10.801 0 22.199 0.6 34 1.801z" />
<glyph unicode="&#xf06d;" glyph-name="fire" horiz-adv-x="768" d="M432 847.98c0-206.282 336-251.4 336-591.98 0-211.74-172.26-384-384-384s-384 172.26-384 384c0 125.439 61.5 243.24 164.539 315.1 31.762 22.16 75.461-0.58 75.461-39.359v-211.74c0-44.119 35.881-80 80-80s80 35.881 80 80c0 98.539-246.9 259.5-56.301 554.060 25.98 40.139 88.301 21.52 88.301-26.080zM384-64c176.439 0 320 143.561 320 320 0 289.4-288 320-330.82 560-133.18-240 90.82-365.78 90.82-496 0-79.4-64.6-144-144-144s-144 64.6-144 144v192c-70.641-60.5-112-162.119-112-256 0-176.439 143.561-320 320-320z" />
<glyph unicode="&#xf06e;" glyph-name="eye" horiz-adv-x="1152" d="M576 320c-70.656 0-128 57.344-128 128 0 1.939 0.58 3.699 0.58 5.699 8.672-3.148 23.199-5.703 32.424-5.703 52.441 0 95 42.559 95 95 0 9.225-2.555 23.752-5.703 32.424 1.939 0.1 3.699 0.58 5.699 0.58 70.656 0 128-57.344 128-128s-57.344-128-128-128zM1145.040 413.2c3.842-7.598 6.959-20.676 6.959-29.189s-3.117-21.592-6.959-29.189c-108.398-211.542-323.18-354.82-569.040-354.82s-460.58 143.18-569.040 354.8c-3.842 7.598-6.959 20.676-6.959 29.189s3.117 21.592 6.959 29.189c108.398 211.542 323.18 354.82 569.040 354.82s460.58-143.18 569.040-354.8zM576 704c-141.158-0.154-255.846-114.842-256-256 0-141.312 114.688-256 256-256s256 114.688 256 256-114.688 256-256 256zM576 64c214.72 0 410.94 122.619 512 320-48.297 94.812-164.58 210.694-259.56 258.66 41.74-54.041 67.561-121 67.561-194.66 0-176.641-143.359-320-320-320s-320 143.359-320 320c0 73.66 25.82 140.619 67.561 194.66-94.98-47.967-211.264-163.848-259.56-258.66 101.080-197.381 297.28-320 512-320z" />
<glyph unicode="&#xf070;" glyph-name="eye-slash" horiz-adv-x="1280" d="M1274-74.5c3.313-2.652 6.002-8.248 6.002-12.49 0-3.096-1.568-7.572-3.502-9.99l-20-25.020c-2.652-3.318-8.252-6.012-12.498-6.012-3.102 0-7.582 1.574-10.002 3.512l-1228 967c-3.307 2.652-5.988 8.244-5.988 12.48 0 3.1 1.572 7.58 3.508 10l20 25.020c2.652 3.313 8.248 6.002 12.492 6.002 3.096 0 7.57-1.568 9.988-3.502zM640 704c-64.881 0-123.52-25.039-168.699-64.859l-91.541 72c68.303 31.387 184.742 56.859 259.91 56.859h0.33c245.88 0 460.6-143.18 569.060-354.8 3.84-7.598 6.959-20.676 6.959-29.189s-3.119-21.592-6.959-29.189c-36.121-70.5-84.92-132.461-141.861-185.020l-50.639 39.879c46.424 41.104 107.146 119.197 135.539 174.32-48.328 94.818-164.656 210.698-259.66 258.66 41.74-54.041 67.561-121 67.561-194.66 0-58.279-16.699-112.18-43.9-159.141l-50.9 40c19 35.76 30.801 75.9 30.801 119.141-0.154 141.158-114.842 255.846-256 256zM761.72 410.34l-127.9 100.699c3.412 8.738 6.18 23.439 6.18 32.818 0 8.996-2.553 23.137-5.699 31.562 1.92 0.1 3.699 0.58 5.699 0.58 0.473 0.006 1.24 0.012 1.713 0.012 69.719 0 126.301-56.582 126.301-126.301 0-11.143-2.82-28.781-6.293-39.371zM326.48 508.66l58.959-46.42c-0.26-4.801-1.439-9.359-1.439-14.24 0.166-141.158 114.861-255.846 256.020-256 25.66 0 49.961 4.939 73.361 12l59.158-46.58c-35.131-16.24-95.057-29.422-133.762-29.422-175.967 0-318.78 142.814-318.78 318.782 0 0.336 0 0.883 0.002 1.221 0.125 16.92 3.029 44.096 6.48 60.66zM640 64c70.301 0 138.119 14.32 201.74 38.859l58.5-46c-68.305-31.387-184.748-56.859-259.918-56.859h-0.322c-245.86 0-460.58 143.18-568.96 354.8-3.84 7.598-6.957 20.676-6.957 29.189s3.117 21.592 6.957 29.189c36.121 70.5 84.9 132.439 141.861 185l51.719-40.74c-54.439-48-101.76-105.439-136.619-173.439 101.061-197.381 297.28-320 512-320z" />
<glyph unicode="&#xf071;" glyph-name="exclamation-triangle" horiz-adv-x="1152" d="M540.4 576h71c6.799 0 12.199-5.6 12-12.4l-15-392c-0.201-6.4-5.6-11.6-12-11.6h-41c-6.4 0-11.801 5-12 11.6l-15 392c-0.201 6.801 5.199 12.4 12 12.4zM576 120c31 0 56-25 56-56s-25-56-56-56-56 25-56 56 25 56 56 56zM1139 16c37-64-9.4-144-83-144h-959.8c-74 0-120 80.199-83.199 144l479.8 832c37 64 129.6 64 166.398 0zM1056-64c24.6 0 40 26.801 27.6 48l-480 832c-12.199 21.4-43.199 21.199-55.4 0l-480-832c-12.199-21.4 3.201-48 27.801-48h960z" />
<glyph unicode="&#xf072;" glyph-name="plane" horiz-adv-x="1152" d="M960 512c70.699 0 192-57.301 192-128s-121.301-128-192-128h-228.58l-210.22-367.88c-5.699-9.959-16.299-16.119-27.779-16.119h-176.721c-21.26 0-36.6 20.359-30.76 40.801l98.061 343.2h-128l-86.4-115.199c-6.039-8.061-15.52-12.801-25.6-12.801h-111.98c-20.82 0-36.1 19.561-31.039 39.76l63.020 216.24-63.020 216.24c-5.061 20.199 10.219 39.76 31.039 39.76h111.98c10.061 0 19.561-4.74 25.6-12.801l86.4-115.199h128l-98.061 343.22c-5.84 20.439 9.5 40.779 30.76 40.779h176.723c10.252 0 22.705-7.223 27.799-16.119l210.2-367.88h228.58zM960 320c52.48 0 125.221 43.5 128 64.18-2.779 20.32-75.52 63.82-128 63.82h-265.7l-219.42 384h-115.74l109.699-384h-244.84l-96 128h-53.34l56-192-55.961-192h53.301l96 128h244.86l-109.719-384h115.719l219.42 384h265.72z" />
<glyph unicode="&#xf073;" glyph-name="calendar-alt" horiz-adv-x="896" d="M800 768c53 0 96-43 96-96v-704c0-53-43-96-96-96h-704c-53 0-96 43-96 96v704c0 53 43 96 96 96h96v104c0 13.199 10.801 24 24 24h16c13.199 0 24-10.801 24-24v-104h384v104c0 13.199 10.801 24 24 24h16c13.199 0 24-10.801 24-24v-104h96zM96 704c-17.6 0-32-14.4-32-32v-96h768v96c0 17.6-14.4 32-32 32h-704zM800-64c17.6 0 32 14.4 32 32v544h-768v-544c0-17.6 14.4-32 32-32h704zM296 256h-80c-13.199 0-24 10.801-24 24v80c0 13.199 10.801 24 24 24h80c13.199 0 24-10.801 24-24v-80c0-13.199-10.801-24-24-24zM488 256h-80c-13.199 0-24 10.801-24 24v80c0 13.199 10.801 24 24 24h80c13.199 0 24-10.801 24-24v-80c0-13.199-10.801-24-24-24zM680 256h-80c-13.199 0-24 10.801-24 24v80c0 13.199 10.801 24 24 24h80c13.199 0 24-10.801 24-24v-80c0-13.199-10.801-24-24-24zM488 64h-80c-13.199 0-24 10.801-24 24v80c0 13.199 10.801 24 24 24h80c13.199 0 24-10.801 24-24v-80c0-13.199-10.801-24-24-24zM296 64h-80c-13.199 0-24 10.801-24 24v80c0 13.199 10.801 24 24 24h80c13.199 0 24-10.801 24-24v-80c0-13.199-10.801-24-24-24zM680 64h-80c-13.199 0-24 10.801-24 24v80c0 13.199 10.801 24 24 24h80c13.199 0 24-10.801 24-24v-80c0-13.199-10.801-24-24-24z" />
<glyph unicode="&#xf074;" glyph-name="random" d="M0 640v16c0 13.199 10.801 24 24 24h211.6c6.6 0 13-2.801 17.6-7.801l179.4-194-43.6-47.199-171 185h-194c-13.199 0-24 10.801-24 24zM1005.2 82.801l-128-128c-40.199-40.201-109.199-11.602-109.199 45.199v88h-51.4c-6.6 0-13 2.801-17.6 7.801l-179.4 194 43.6 47.199 170.801-185h34v104c0 57 69 85.4 109.199 45.199l128-128c25-25 25-65.398 0-90.398zM965.6 133.6l-128 128c-5 5-13.6 1.4-13.6-5.6v-256c0-7.199 8.6-10.801 13.6-5.6l128 128c3.201 3 3.201 8.199 0 11.199zM1005.2 594.8l-128-128c-40.199-40.201-109.199-11.602-109.199 45.199v104h-34l-480.8-520.2c-4.6-5-11-7.801-17.6-7.801h-211.6c-13.199 0-24 10.801-24 24v16c0 13.199 10.801 24 24 24h194l480.8 520.2c4.6 5 11 7.801 17.6 7.801h51.6v88c0 57 69 85.4 109.199 45.199l128-128c25-25 25-65.398 0-90.398zM965.6 645.6l-128 128c-5 5-13.6 1.4-13.6-5.6v-256c0-7.199 8.6-10.801 13.6-5.6l128 128c3.201 3 3.201 8.199 0 11.199z" />
<glyph unicode="&#xf075;" glyph-name="comment" d="M512 768c-247 0-448-158-448-352 0-75.199 30.6-147.4 88.4-208.6l27.4-29.201-14.201-37.398c-22-58.4-57.6-109-81.6-139.201 88.199 8.6 159.199 46.6 205.2 79.201l26 18.398 30.4-9.6c53.801-17 109.801-25.6 166.4-25.6 247 0 448 158 448 352s-201 352-448 352zM512 832c282.8 0 512-186.199 512-416s-229.2-416-512-416c-65.6 0-128 10.4-186 28.6-58.199-41.199-155.199-92.6-278.2-92.6-19.201 0-36.4 11.4-44 29-7.602 17.6-4 38 9.199 52 1 0.801 63 67.6 92.801 146.4-66 70.199-105.801 157.4-105.801 252.6 0 229.8 229.2 416 512 416z" />
<glyph unicode="&#xf076;" glyph-name="magnet" d="M744 832h208c39.801 0 72-32.199 72-72v-378.6c0-301.4-269-493.4-510.4-493.4-241.2 0-513.6 192-513.6 493.4 1.4 30.6 2 78 2.199 130.6h-2.199v64h2.199c-0.199 66.4-0.799 134.199-1.398 183.199-0.4 40.201 32 72.801 72 72.801h207.2c39.801 0 72-32.199 72-72v-344c0-128 80.199-192 160.199-192 79.801 0 159.801 64 159.801 192v344c0 39.801 32.199 72 72 72zM73 760c0.4-49.199 1-117.199 1.199-184h205.8v184h-207zM952 379.8c-1.4 31.799-2 79.6-2.199 132h-205.8v-96c0-98.4-37.801-159.4-69.4-193.201-21.4-23-46.799-40.799-75.4-53-27.6-11.799-57-17.799-87-17.799s-59.398 6-87 17.799c-28.6 12.201-54 30-75.6 53-31.799 33.801-69.6 94.801-69.6 193.201v96h-206.2c-0.201-52.801-0.801-100.4-2.201-132.201 0.4-60.6 13.4-118.199 39.201-171.199 24.199-49.6 58.6-94.201 102.6-132.6 41.6-36.201 91.199-66 143.6-86 51.4-19.602 105.4-30 156.4-30s104.799 10.398 155.799 30c52 20 101.201 49.6 142.4 85.799 43.6 38.201 77.801 82.801 101.6 132.6 25.602 53 38.602 110.801 38.801 171.602zM744 576h205.8c0 66.801 0.6 134.801 1.199 184h-207v-184z" />
<glyph unicode="&#xf077;" glyph-name="chevron-up" horiz-adv-x="896" d="M8.93 163.051c-9.373 9.371-9.373 24.566 0 33.939l422.098 422.102c9.375 9.373 24.57 9.373 33.943 0l422.1-422.102c9.371-9.373 9.371-24.568 0-33.939l-14.141-14.143c-9.373-9.373-24.57-9.373-33.941 0l-390.988 390.986-390.988-390.986c-9.373-9.373-24.57-9.373-33.941 0z" />
<glyph unicode="&#xf078;" glyph-name="chevron-down" horiz-adv-x="896" d="M887 570.8c9.4-9.4 9.4-24.602-0.199-34l-422-422.202c-9.4-9.4-24.602-9.4-34 0l-422 422.202c-9.4 9.398-9.4 24.6 0 34l14.199 14.199c9.4 9.4 24.6 9.4 34 0l391-391 390.8 391c9.398 9.4 24.6 9.4 34 0z" />
<glyph unicode="&#xf079;" glyph-name="retweet" horiz-adv-x="1280" d="M1269.656 168.402l-196.686-196.686c-9.373-9.373-24.568-9.373-33.943 0l-196.686 196.686c-9.371 9.371-9.371 24.568 0 33.941l11.313 11.313c9.371 9.371 24.568 9.371 33.941 0l136.404-136.4v562.744h-503.956c-5.486 0-13.088 3.15-16.967 7.029l-16 16c-15.121 15.121-4.412 40.971 16.971 40.971h535.952c26.51 0 48-21.49 48-48v-578.744l136.402 136.402c9.371 9.371 24.568 9.371 33.941 0l11.313-11.313c9.371-9.373 9.371-24.57 0-33.943zM776.922 120.971l16-16c15.121-15.119 4.412-40.971-16.971-40.971h-535.952c-26.51 0-48 21.49-48 48v578.744l-136.402-136.402c-9.371-9.371-24.568-9.371-33.939 0l-11.314 11.314c-9.371 9.371-9.371 24.57 0 33.941l196.684 196.688c9.375 9.373 24.57 9.373 33.943 0l196.686-196.686c9.373-9.373 9.371-24.57 0-33.941l-11.314-11.314c-9.371-9.371-24.568-9.371-33.939 0l-136.402 136.4v-562.744h503.952c5.488 0 13.090-3.15 16.971-7.029z" />
<glyph unicode="&#xf07a;" glyph-name="shopping-cart" horiz-adv-x="1152" d="M1103.982 768c30.447 0 53.201-27.982 46.994-57.789l-86.662-416c-4.639-22.26-24.256-38.211-46.992-38.211h-662.762l24-128h592.096c22.863 0 41.389-15.781 46.57-36.264 23.906-23.256 38.775-55.75 38.775-91.736 0-70.691-57.309-128-128-128s-128 57.309-128 128v0.141c0 18.898 7.689 47.508 17.166 63.859h-290.334c9.477-16.352 17.166-44.961 17.166-63.859v-0.141c0-70.691-57.309-128-128-128s-128 57.309-128 128c0 33.16 12.609 63.371 33.295 86.107l-139.855 745.892h-157.439c-13.254 0-24 10.746-24 24v16c0 13.254 10.746 24 24 24h170.725c23.098 0 42.92-16.451 47.178-39.154l16.658-88.846h845.422zM480 0c0 35.289-28.711 64-64 64s-64-28.711-64-64 28.711-64 64-64 64 28.711 64 64zM928-64c35.289 0 64 28.711 64 64s-28.711 64-64 64-64-28.711-64-64 28.711-64 64-64zM1004.312 320l80 384h-813.752l72-384h661.752z" />
<glyph unicode="&#xf07b;" glyph-name="folder" d="M389.48 704h-293.48c-17.68 0-32-14.32-32-32v-576c0-17.68 14.32-32 32-32h832c17.68 0 32 14.32 32 32v448c0 17.68-14.32 32-32 32h-384c-16.98 0-33.26 6.74-45.26 18.74zM96 768h293.48c16.98 0 33.26-6.74 45.26-18.74l109.26-109.26h384c53.020 0 96-42.98 96-96v-448c0-53.020-42.98-96-96-96h-832c-53.020 0-96 42.98-96 96v576c0 53.020 42.98 96 96 96z" />
<glyph unicode="&#xf07c;" glyph-name="folder-open" horiz-adv-x="1152" d="M1055.9 448c74.67 0 120.58-81.623 82.318-145.393l-134.906-224.928c-28.928-48.213-81.062-77.68-137.199-77.68h-770.114c-53.020 0-96 42.98-96 96v576c0 53.020 42.98 96 96 96h320l128-128h320c53.020 0 96-42.98 96-96v-96h95.9zM96 704c-17.674 0-32-14.326-32-32v-536.94l141.156 235.26c28.928 48.213 81.062 77.68 137.197 77.68h553.646v96c0 17.674-14.326 32-32 32h-346.51l-128 128h-293.49zM1083.39 335.536c12.797 21.328-2.566 48.465-27.441 48.465h-719.95c-30.004 0-66.883-20.881-82.32-46.607l-164.033-273.392h776.47c30.002 0 66.879 20.881 82.314 46.607z" />
<glyph unicode="&#xf07d;" glyph-name="arrows-v" horiz-adv-x="384" d="M362.83 96.082l14.143-14.141c9.371-9.371 9.371-24.568 0-33.939l-168-168.971c-9.375-9.373-24.57-9.373-33.943 0l-168 168.971c-9.371 9.371-9.371 24.568 0 33.939l14.141 14.143c9.375 9.371 24.57 9.371 33.941 0l102.889-103.855v783.544l-102.889-103.855c-9.373-9.371-24.568-9.371-33.941 0l-14.141 14.143c-9.371 9.371-9.371 24.568 0 33.939l167.998 168.971c9.375 9.371 24.57 9.371 33.943 0l168-168.971c9.371-9.371 9.371-24.568 0-33.939l-14.141-14.143c-9.375-9.371-24.57-9.371-33.941 0l-102.889 103.855v-783.546l102.889 103.855c9.373 9.371 24.568 9.371 33.941 0z" />
<glyph unicode="&#xf07e;" glyph-name="arrows-h" d="M799.918 554.83l14.141 14.143c9.371 9.371 24.568 9.371 33.939 0l168.971-168c9.373-9.375 9.373-24.57 0-33.943l-168.971-168c-9.371-9.371-24.568-9.371-33.939 0l-14.143 14.141c-9.371 9.375-9.371 24.57 0 33.941l103.855 102.889h-783.544l103.855-102.891c9.371-9.373 9.371-24.57 0-33.941l-14.143-14.141c-9.371-9.371-24.568-9.371-33.939 0l-168.971 168c-9.371 9.375-9.371 24.57 0 33.943l168.971 168c9.371 9.371 24.568 9.371 33.939 0l14.143-14.141c9.371-9.375 9.371-24.57 0-33.941l-103.855-102.889h783.546l-103.855 102.889c-9.371 9.373-9.371 24.568 0 33.941z" />
<glyph unicode="&#xf080;" glyph-name="chart-bar" d="M848 192c-8.801 0-16 7.199-16 16v480c0 8.801 7.199 16 16 16h32c8.801 0 16-7.199 16-16v-480c0-8.801-7.199-16-16-16h-32zM656 192c-8.801 0-16 7.199-16 16v288c0 8.801 7.199 16 16 16h32c8.801 0 16-7.199 16-16v-288c0-8.801-7.199-16-16-16h-32zM272 192c-8.801 0-16 7.199-16 16v160c0 8.801 7.199 16 16 16h32c8.801 0 16-7.199 16-16v-160c0-8.801-7.199-16-16-16h-32zM464 192c-8.801 0-16 7.199-16 16v416c0 8.801 7.199 16 16 16h32c8.801 0 16-7.199 16-16v-416c0-8.801-7.199-16-16-16h-32zM1008 64c8.84 0 16-7.16 16-16v-32c0-8.84-7.16-16-16-16h-976c-17.68 0-32 14.32-32 32v720c0 8.84 7.16 16 16 16h32c8.84 0 16-7.16 16-16v-688h944z" />
<glyph unicode="&#xf083;" glyph-name="camera-retro" d="M64 780v40c0 6.6 5.4 12 12 12h232c6.6 0 12-5.4 12-12v-40c0-6.6-5.4-12-12-12h-232c-6.6 0-12 5.4-12 12zM752 320c0-132.4-107.6-240-240-240s-240 107.6-240 240 107.6 240 240 240 240-107.6 240-240zM688 320c0 97-79 176-176 176s-176-79-176-176 79-176 176-176 176 79 176 176zM448 320c0-17.6-14.4-32-32-32s-32 14.4-32 32c0 70.6 57.4 128 128 128 17.6 0 32-14.4 32-32s-14.4-32-32-32c-35.199 0-64-28.801-64-64zM1024 736v-704c0-53-43-96-96-96h-832c-53 0-96 43-96 96v576c0 53 43 96 96 96h272l67.199 89.6c18.201 24.201 46.602 38.4 76.801 38.4h416c53 0 96-43 96-96zM448 704h480c11.199 0 22-2 32-5.4v37.4c0 17.6-14.4 32-32 32h-416c-10 0-19.6-4.801-25.6-12.801zM960 608c0 17.6-14.4 32-32 32h-832c-17.6 0-32-14.4-32-32v-576c0-17.6 14.4-32 32-32h832c17.6 0 32 14.4 32 32v576z" />
<glyph unicode="&#xf084;" glyph-name="key" d="M672 832c-159.059 0-288-128.941-288-288 0-37.936 7.35-74.152 20.678-107.322l-340.678-340.678v-160h192v128h128v128h96l84.678 84.678c33.17-13.328 69.387-20.678 107.322-20.678 159.059 0 288 128.941 288 288s-128.941 288-288 288zM672 896c194.463 0 352-157.633 352-352 0-194.463-157.633-352-352-352-30.613 0-60.703 3.891-89.893 11.596l-61.537-61.537c-9.002-9-21.213-14.059-33.941-14.059h-38.629v-80c0-26.51-21.49-48-48-48h-80v-80c0-26.51-21.49-48-48-48h-224c-26.51 0-48 21.49-48 48v182.629c0 10.973 6.299 26.178 14.059 33.939l317.538 317.538c-7.705 29.191-11.596 59.281-11.596 89.895 0 194.463 157.633 352 352 352zM768 680c-22.057 0-40-17.943-40-40s17.943-40 40-40 40 17.943 40 40-17.943 40-40 40zM768 736c53.020 0 96-42.98 96-96s-42.98-96-96-96-96 42.98-96 96 42.98 96 96 96z" />
<glyph unicode="&#xf085;" glyph-name="cogs" horiz-adv-x="1280" d="M1077.2 503.2l-5 7.801c-8.199-0.6-16.199-0.6-24.398 0l-5-8c-11.602-18.4-34.201-26.801-55-20.199-27.602 8.6-46 17.6-68.602 36.199-18 14.801-22.398 40.6-10.799 60.801l5 8.6c-4.6 6.799-8.6 13.799-12.201 21.199h-18.199c-23.199 0-42.801 16.4-47.199 39.201-5.201 27.398-5.4 48.398 0.199 77 4.199 22.6 24.199 39 47.199 39h18c3.602 7.398 7.602 14.398 12.201 21.199l-5.201 9c-11.6 20-7.199 45.4 10.4 60.6 21.201 18.201 39.4 28.6 67 38 21.6 7.4 45.4-1.4 57-21.199l5.201-8.801c8.199 0.6 16.199 0.6 24.398 0l5.201 8.801c11.6 19.799 35.4 28.6 57.199 21 26.6-9 44.6-19.201 67-38.201 17.6-15 21.801-40.398 10.201-60.398l-5.201-8.801c4.6-6.801 8.6-13.801 12.201-21.199h10.199c23.199 0 42.801-16.4 47.199-39.201 5.201-27.4 5.4-48.4-0.199-77-4.199-22.6-24.199-39-47.199-39h-10c-3.602-7.4-7.602-14.4-12.201-21.199l5-8.6c11.801-20.4 7-46.201-11-61-21.4-17.602-39.799-26.801-68-35.801-21-6.6-43.799 1.6-55.4 20.199zM1101.6 572.2l21.201-36.6c13.398 5.6 25.799 12.801 37.398 21.6l-21.199 36.602 12.801 15c9.6 11.398 17.199 24.199 22 38.199l6.6 18.6h42.199c1.801 14.201 1.801 28.801 0 43h-42.199l-6.6 18.6c-5 14-12.4 26.801-22 38.201l-12.801 15 21 36.799c-11.4 8.801-24 16-37.4 21.602l-21.199-36.602-19.4 3.602c-14.6 2.799-29.6 2.799-44.199 0l-19.4-3.602-21.201 36.602c-13.199-5.4-25.799-12.801-37.199-21.602l21.199-36.6-12.799-15c-9.6-11.4-17.201-24.199-22-38.199l-6.6-18.6h-42.201c-1.799-14.201-1.799-28.801 0-43h42.201l6.6-18.602c5-14 12.4-26.799 22-38.199l12.799-15-21.199-36.801c11.4-8.799 24-16 37.4-21.6l21.199 36.6 19.4-3.6c14.6-2.799 29.6-2.799 44.199 0zM290.6-12.801v63.201c-25.799 11-50.199 25.199-72.799 42.199l-55-31.799c-19.602-11.201-44.201-7.4-59.4 9.199-48.4 52.6-77 99-101.201 176.199-6.799 21.4 2.201 44.602 21.602 56l54.6 31.801c-3.4 28-3.4 56.199 0 84.199l-54.6 31.602c-19.4 11.199-28.4 34.6-21.602 56 24.201 76.799 52.4 123.199 101.201 176.199 15.199 16.6 40 20.4 59.4 9.199l54.799-31.799c22.6 17 47 31 72.801 42.199v63.201c0 22.6 15.6 42 37.6 46.799 69.4 15.6 124 17.4 203.4 0 22-4.799 37.799-24.4 37.799-46.799v-63.201c25.801-11 50.201-25.199 72.801-42l54.801 31.6c19.6 11.201 44.398 7.4 59.6-9.199 53.799-59.199 83-111.801 104.199-177 6.801-21-1.6-43.801-20.4-55.4l-50-31.6c3.4-28 3.4-56.199 0-84.199l56.201-35c17.199-10.801 26-31.201 21.6-51-13.801-62.602-66-129.201-111.801-178.4-15.199-16.4-39.799-20-59.199-8.801l-55 31.801c-22.6-17-47-31-72.801-42.201v-63.199c0-22.4-15.6-42-37.6-46.801-75-16.6-129.799-16.398-203.798 0-21.602 5-37.201 24.602-37.201 47zM354.6-0.4c49.6-10 101-10 150.6 0v95.4l21.4 7.6c33.6 11.801 64.6 29.801 91.801 53l17.199 14.801 82.801-47.801c33.6 38.201 68 82.6 84.199 130.4l-82.799 47.801 4.199 22.199c6.4 35.199 6.4 71 0 106.199l-4.199 22.201 82.799 47.799c-16.199 47.801-50.6 92.4-84.199 130.4l-82.801-47.799-17.199 14.799c-27.201 23.4-58 41.201-91.801 53l-21.4 7.6v95.201c-49.6 10-101 10-150.6 0v-95.4l-21.4-7.6c-33.6-11.801-64.6-29.801-91.799-53l-17.201-14.801-82.799 47.801c-28.002-31.832-61.781-90.252-75.4-130.4l82.801-47.801-4.201-22.199c-6.4-35.199-6.4-71 0-106.199l4.201-22.201-82.801-47.799c16.199-47.801 41.801-92.4 75.4-130.4l82.799 47.799 17.201-14.799c27.199-23.4 58-41.201 91.799-53l21.4-7.6v-95.201zM431.4 210.2c-91.4 0-165.801 74.4-165.801 165.801s74.4 165.801 165.801 165.801 165.799-74.4 165.799-165.801-74.398-165.801-165.799-165.801zM431.4 477.8c-56 0-101.801-45.602-101.801-101.801s45.6-101.801 101.801-101.801c56 0 101.799 45.602 101.799 101.801s-45.6 101.801-101.799 101.801zM1077.2-105.6l-5 7.799c-8.199-0.6-16.199-0.6-24.398 0l-5-8c-11.602-18.398-34.201-26.799-55-20.199-27.602 8.6-46 17.6-68.602 36.199-18 14.801-22.398 40.602-10.799 60.801l5 8.6c-4.6 6.801-8.6 13.801-12.201 21.201h-18.199c-23.199 0-42.801 16.398-47.199 39.199-5.201 27.4-5.4 48.4 0.199 77 4.199 22.6 24.199 39 47.199 39h18c3.602 7.4 7.602 14.4 12.201 21.199l-5.201 9c-11.6 20-7.199 45.4 10.4 60.602 21.201 18.199 39.4 28.6 67 38 21.6 7.398 45.4-1.4 57-21.201l5.201-8.799c8.199 0.6 16.199 0.6 24.398 0l5.201 8.799c11.6 19.801 35.4 28.6 57.199 21 26.6-9 44.6-19.199 67-38.199 17.6-15 21.801-40.4 10.201-60.4l-5.201-8.801c4.6-6.799 8.6-13.799 12.201-21.199h10.199c23.199 0 42.801-16.4 47.199-39.199 5.201-27.4 5.4-48.4-0.199-77-4.199-22.602-24.199-39-47.199-39h-10c-3.602-7.4-7.602-14.4-12.201-21.201l5-8.6c11.801-20.4 7-46.199-11-61-21.4-17.6-39.799-26.801-68-35.801-21-6.398-43.799 1.801-55.4 20.201zM1101.6-36.4l21.201-36.6c13.398 5.6 25.799 12.801 37.398 21.6l-21.199 36.6 12.801 15c9.6 11.4 17.199 24.201 22 38.201l6.6 18.6h42.199c1.801 14.199 1.801 28.801 0 43h-42.199l-6.6 18.6c-5 14-12.4 26.801-22 38.201l-12.801 15 21.199 36.6c-11.398 8.799-24 16-37.398 21.6l-21.201-36.6-19.4 3.6c-14.6 2.801-29.6 2.801-44.199 0l-19.4-3.6-21.199 36.6c-13.4-5.6-25.801-12.801-37.4-21.6l21.199-36.6-12.799-15c-9.6-11.4-17.201-24.201-22-38.201l-6.6-18.6h-42.201c-1.799-14.199-1.799-28.801 0-43h42.201l6.6-18.6c5-14 12.4-26.801 22-38.201l12.799-15-21.199-36.6c11.4-8.799 24-16 37.4-21.6l21.199 36.6 19.4-3.6c14.6-2.801 29.6-2.801 44.199 0zM1120 80c0-35.4-28.6-64-64-64s-64 28.6-64 64 28.6 64 64 64 64-28.6 64-64zM1120 688.6c0-35.199-28.6-64-64-64s-64 28.6-64 64 28.6 64 64 64 64-28.6 64-64z" />
<glyph unicode="&#xf086;" glyph-name="comments" horiz-adv-x="1152" d="M1139.8 13.801c12.6-13.4 16-33 8.799-50-7.4-17-24-28-42.4-28-107.199 0-193.398 40.6-250.398 77.6-38-8.801-78-13.6-119.602-13.6-172.6 0-320.6 81-383.6 196-19.199 2.199-37.799 5.398-56 9.6-57-37.201-143.4-77.6-250.4-77.6-18.398 0-35.199 11-42.398 28-7.4 17-3.801 36.6 8.799 50 0.801 0.799 44.801 48.398 75.4 109.799-55 54.4-88 122.4-88 196.4 0 176.801 186.199 320 416 320 172.6 0 320.8-81 383.6-196.199 199.4-23.602 352.4-155.801 352.4-315.8 0-74.199-33-142.199-88-196.4 30.6-61.4 74.801-109 75.801-109.799zM310.8 268c34.398-8 69.799-12 105.199-12 194 0 352 114.801 352 256s-158 256-352 256-352-114.801-352-256c0-68.4 37.4-119.801 69-150.801l33-32.6-20.801-41.6c-18.6-37.6-41.398-70.199-59-92.801 74.4 8.602 135.201 38.801 175.4 65l22.801 14.801zM890.4 67.199c40.199-26 101-56.398 175.199-64.799-17.4 22.4-40.199 55-59 92.799l-20.6 41.4 33 32.6c31.6 31 69 82.4 69 150.801 0 118.6-111.801 218.4-262.6 247.4 4-18 6.6-36.4 6.6-55.4 0-172.801-178.199-313.2-400.8-319.6 60.801-76.801 174.602-128.6 304.8-128.6 35.4 0 70.801 4 105.199 12l26.4 6.199z" />
<glyph unicode="&#xf089;" glyph-name="star-half" horiz-adv-x="1152" d="M576 89.199v-72.398l-261.4-137.201c-46.799-24.6-101.799 15.201-92.799 67.4l50 291-211.4 206c-38 37-17 101.6 35.4 109.199l292.2 42.4 130.6 264.8c11.801 23.799 34.6 35.6 57.4 35.6v-64l-145.6-295-325.4-47.199 235.6-229.602-55.6-324z" />
<glyph unicode="&#xf08b;" glyph-name="sign-out" d="M96 768h264c13.199 0 24-10.801 24-24v-16c0-13.199-10.801-24-24-24h-264c-17.6 0-32-14.4-32-32v-576c0-17.6 14.4-32 32-32h264c13.199 0 24-10.801 24-24v-16c0-13.199-10.801-24-24-24h-264c-53 0-96 43-96 96v576c0 53 43 96 96 96zM654 729c9.4 9.4 24.6 9.4 34 0l329.2-328c9.4-9.4 9.4-24.6 0-34l-329-328c-9.398-9.4-24.6-9.4-34 0l-14.199 14.199c-9.4 9.4-9.4 24.602 0 34l263.8 262.8h-559.8c-13.199 0-24 10.801-24 24v20c0 13.199 10.801 24 24 24h559.8l-264 262.8c-9.4 9.398-9.4 24.6 0 34z" />
<glyph unicode="&#xf08d;" glyph-name="thumbtack" horiz-adv-x="768" d="M601.6 488.2c96.6-55.199 166.4-149 166.201-262.6 0-17.6-14.4-32-32-32h-320v-241.6c0-1.199 0-2.6-0.4-3.801l-16-64c-4-16.199-27-16-31 0l-16 64c-0.201 1.201-0.4 2.4-0.4 3.801v241.6h-320c-17.6 0-32 14.4-32 32 0 113.6 69.801 207.4 166.4 262.6l20.199 151.801h-74.6c-26.4 0-48 21.6-48 48v160c0 26.4 21.6 48 48 48h544c26.4 0 48-21.6 48-48v-160c0-26.4-21.6-48-48-48h-74.6zM66.6 257.6v-0.199h635c-13.6 85.4-79 152.6-159 189l-30.6 257.6h128v128h-512v-128h128l-30.4-257.4c-79.799-36.199-145.4-103.199-159-189z" />
<glyph unicode="&#xf08e;" glyph-name="external-link" horiz-adv-x="1152" d="M391.030 146.344c-9.371 9.373-9.371 24.568 0 33.941l646.3 646.3-1.414 1.414-179.916-0.684c-13.254 0-24 10.746-24 24v19.998c0 13.256 10.744 24 24 24l272 0.686c13.254 0 24-10.744 24-24l-0.686-272c0-13.254-10.746-24-24-24h-19.998c-13.254 0-24 10.746-24 24l0.684 179.916-1.414 1.414-646.3-646.3c-9.371-9.371-24.566-9.371-33.941 0zM855.030 457.61c15.119 15.119 40.971 4.41 40.971-16.971v-472.638c0-53.020-42.98-96-96-96h-704c-53.020 0-96 42.98-96 96v704c0 53.020 42.98 96 96 96h695.952c21.383 0 32.092-25.85 16.971-40.971l-16-16c-4.5-4.502-10.604-7.029-16.971-7.029h-679.952c-17.672 0-32-14.326-32-32v-704c0-17.674 14.328-32 32-32h704c17.672 0 32 14.326 32 32v456.64c0 5.486 3.15 13.090 7.029 16.969z" />
<glyph unicode="&#xf090;" glyph-name="sign-in" d="M368 729l329-328c9.4-9.4 9.4-24.6 0-34l-329-328c-9.4-9.4-24.6-9.4-34 0l-14.199 14.199c-9.4 9.4-9.4 24.602 0 34l264 262.8h-559.8c-13.199 0-24 10.801-24 24v20c0 13.199 10.801 24 24 24h559.8l-263.8 262.8c-9.4 9.398-9.4 24.6 0 34l14.199 14.199c9.201 9.4 24.4 9.4 33.801 0zM1024 96c0-53-43-96-96-96h-264c-13.199 0-24 10.801-24 24v16c0 13.199 10.801 24 24 24h264c17.6 0 32 14.4 32 32v576c0 17.6-14.4 32-32 32h-264c-13.199 0-24 10.801-24 24v16c0 13.199 10.801 24 24 24h264c53 0 96-43 96-96v-576z" />
<glyph unicode="&#xf091;" glyph-name="trophy" horiz-adv-x="1152" d="M896 768h232c13.199 0 24-10.801 24-24v-123.199c0-124-136-268.8-321.4-296.202-58.799-121.4-147.199-180.6-222.6-193.799v-194.801h172c28.801 0 52-23.4 52-52.199 0-6.602-5.4-11.801-12-11.801h-488c-6.6 0-12 5.199-12 11.801 0 28.799 23.199 52.199 52 52.199h172v194.801c-75.199 13.199-163.801 72.398-222.6 193.799-185.201 27.4-321.4 172-321.4 296.202v123.199c0 13.199 10.801 24 24 24h232v104c0 13.199 10.801 24 24 24h592c13.199 0 24-10.801 24-24v-104zM64 620.8c0-80.801 91.801-189.801 229-225.202-23 70.6-37 156.801-37 260.4v48h-192v-83.199zM576 192c144 0 256 208 256 464v176h-512v-176c0-256 112-464 256-464zM1088 620.8v83.199h-192v-48c0-103.6-14-189.801-37-260.4 137 35.4 229 144.4 229 225.202z" />
<glyph unicode="&#xf093;" glyph-name="upload" d="M904 32c0-22-18-40-40-40s-40 18-40 40 18 40 40 40 40-18 40-40zM736 72c22 0 40-18 40-40s-18-40-40-40-40 18-40 40 18 40 40 40zM1024 168v-208c0-48.6-39.4-88-88-88h-848c-48.6 0-88 39.4-88 88v208c0 48.6 39.4 88 88 88h248v198.6h-105.4c-71.199 0-106.799 86.201-56.6 136.6l281.4 281.4c31.199 31.201 81.799 31.201 113.199 0l281.4-281.4c50.4-50.398 14.6-136.6-56.6-136.6h-105.4v-198.6h248c48.6 0 88-39.4 88-88zM400 518.6v-374.6c0-8.801 7.199-16 16-16h192c8.801 0 16 7.199 16 16v374.6h169.4c14.199 0 21.4 17.201 11.4 27.4l-281.4 281.4c-6.201 6.199-16.4 6.199-22.6 0l-281.4-281.4c-10-10-3-27.4 11.4-27.4h169.199zM960 168c0 13.199-10.801 24-24 24h-248v-48c0-44.199-35.801-80-80-80h-192c-44.199 0-80 35.801-80 80v48h-248c-13.199 0-24-10.801-24-24v-208c0-13.199 10.801-24 24-24h848c13.199 0 24 10.801 24 24v208z" />
<glyph unicode="&#xf094;" glyph-name="lemon" d="M978.076 850.074c46.188-46.188 57.783-108.781 33.666-150.186-68.623-117.809 106.156-362.496-173.492-642.142-279.646-279.648-524.332-104.865-642.136-173.486-41.434-24.133-104.029-12.496-150.189 33.664-46.186 46.188-57.783 108.781-33.666 150.186 68.625 117.809-106.154 362.496 173.49 642.142 279.656 279.656 524.322 104.859 642.146 173.49 14.053 8.188 30.545 12.258 48.014 12.258 33.988 0 71.66-15.418 102.168-45.926zM956.44 732.1c24.545 42.137-56.377 119.615-96.334 96.34-153.059-89.158-366.22 99.439-629.102-163.445-262.776-262.774-74.348-476.15-163.441-629.1-23.914-41.055 55.285-120.246 96.342-96.334 153.035 89.143 366.226-99.428 629.094 163.439 262.774 262.774 74.35 476.15 163.441 629.1zM518.942 672.762c-63.779-14.172-129.945-53.021-186.312-109.389-56.369-56.369-95.217-122.535-109.389-186.312-3.314-14.914-16.543-25.066-31.209-25.066-2.297 0-4.631 0.25-6.969 0.77-17.252 3.834-28.131 20.928-24.297 38.18 16.783 75.512 61.744 152.82 126.613 217.688 64.865 64.867 142.174 109.83 217.686 126.611 17.256 3.838 34.346-7.045 38.18-24.297s-7.051-34.35-24.303-38.184z" />
<glyph unicode="&#xf095;" glyph-name="phone" d="M975.6 847.8c28.4-6.4 48.4-31.602 48.4-60.801 0-506.6-410.6-915-915-915-29.199 0-54.4 20-61 48.6l-46.4 201.4c-6.799 29.4 8.4 59.4 36.201 71.4l216.798 93c25.4 11 55.4 3.6 73-17.801l88.201-107.799c138.6 68 251.2 180.799 319.2 319.2l-107.801 88.199c-21.398 17.602-28.799 47.602-17.799 73l93 217c12 27.801 42.199 43 71.6 36.201zM110.199-64c469 0.6 849.202 380.6 849.602 849.6l-199.201 46-92-214.798 145.6-119c-96.799-206.4-209-319-416.2-416.202l-119 145.6-214.8-92z" />
<glyph unicode="&#xf098;" glyph-name="phone-square" horiz-adv-x="896" d="M800 832c53.020 0 96-42.98 96-96v-704c0-53.020-42.98-96-96-96h-704c-53.020 0-96 42.98-96 96v704c0 53.020 42.98 96 96 96h704zM832 32v704c0 17.645-14.355 32-32 32h-704c-17.645 0-32-14.355-32-32v-704c0-17.645 14.355-32 32-32h704c17.645 0 32 14.355 32 32zM722.266 675.49c26.928-6.213 45.734-29.854 45.734-57.49 0-306.362-247.934-554-554-554-27.633 0-51.273 18.807-57.486 45.734l-26.988 117.002c-6.43 27.848 7.975 56.236 34.25 67.496l125.984 53.996c24.025 10.293 52.359 3.359 68.906-16.871l39.48-48.254c53.629 29.586 121.166 97.121 150.752 150.75l-48.258 39.484c-20.227 16.545-27.162 44.879-16.871 68.902l54.002 125.99c8.445 19.742 32.725 35.766 54.197 35.766 3.719 0 9.676-0.682 13.299-1.52zM217.974 128.016c267.896 2.117 483.898 218.606 486.014 486.014l-109.037 25.158-50.871-118.695 84.58-69.205c-59.576-126.973-124.16-189.871-247.946-247.942l-69.203 84.576-118.695-50.869z" />
<glyph unicode="&#xf09c;" glyph-name="unlock" horiz-adv-x="768" d="M672 384c53 0 96-43 96-96v-320c0-53-43-96-96-96h-576c-53 0-96 43-96 96v320c0 53 43 96 96 96h32v192c0 176.801 80 320.6 257 320 176.801-0.6 255-146.199 255-323v-37c0-13.199-10.801-24-24-24h-16c-13.199 0-24 10.801-24 24v40c0 141.199-50.801 256-192 256s-192-114.801-192-256v-192h480zM704-32v320c0 17.6-14.4 32-32 32h-576c-17.6 0-32-14.4-32-32v-320c0-17.6 14.4-32 32-32h576c17.6 0 32 14.4 32 32z" />
<glyph unicode="&#xf09d;" glyph-name="credit-card" horiz-adv-x="1152" d="M1056 832c53 0 96-43 96-96v-704c0-53-43-96-96-96h-960c-53 0-96 43-96 96v704c0 53 43 96 96 96h960zM96 768c-17.6 0-32-14.4-32-32v-96h1024v96c0 17.6-14.4 32-32 32h-960zM1056 0c17.6 0 32 14.4 32 32v416h-1024v-416c0-17.6 14.4-32 32-32h960zM384 168v-16c0-13.199-10.801-24-24-24h-144c-13.199 0-24 10.801-24 24v16c0 13.199 10.801 24 24 24h144c13.199 0 24-10.801 24-24zM768 168v-16c0-13.199-10.801-24-24-24h-272c-13.199 0-24 10.801-24 24v16c0 13.199 10.801 24 24 24h272c13.199 0 24-10.801 24-24z" />
<glyph unicode="&#xf09e;" glyph-name="rss" horiz-adv-x="896" d="M160 192c-52.934 0-96-43.066-96-96s43.066-96 96-96 96 43.066 96 96-43.066 96-96 96zM160 256c88.365 0 160-71.635 160-160s-71.635-160-160-160-160 71.635-160 160 71.635 160 160 160zM895.992-39.23c0.365-13.551-10.447-24.77-24.004-24.77h-16.014c-12.965 0-23.633 10.293-23.988 23.252-12.096 440.908-367.116 796.634-808.734 808.734-12.959 0.355-23.252 11.023-23.252 23.988v16.012c0 13.557 11.219 24.371 24.771 24.004 475.1-12.893 858.324-395.524 871.22-871.22zM607.502-39.131c0.547-13.584-10.4-24.869-23.996-24.869h-16.010c-12.916 0-23.439 10.229-23.979 23.135-11.781 282.224-238.116 508.602-520.382 520.382-12.906 0.539-23.135 11.061-23.135 23.979v16.010c0 13.594 11.285 24.543 24.869 23.996 316.218-12.691 569.94-266.368 582.632-582.632z" />
<glyph unicode="&#xf0a0;" glyph-name="hdd" horiz-adv-x="1152" d="M1133.638 441.246c10.135-13.936 18.361-39.23 18.361-56.463v-288.784c0-53.020-42.98-96-96-96h-960c-53.020 0-96 42.98-96 96v288.784c0 17.232 8.227 42.527 18.361 56.463l208.886 287.218c15.871 21.822 50.652 39.535 77.637 39.535h542.228c26.986 0 61.77-17.713 77.641-39.535zM279.006 690.822l-176.598-242.822h947.184l-176.596 242.822c-6.002 8.252-15.676 13.178-25.881 13.178h-542.228c-8.988-0.014-20.582-5.918-25.881-13.178zM1088 352c0 17.674-14.326 32-32 32h-960c-17.674 0-32-14.326-32-32v-256c0-17.646 14.355-32 32-32h960c17.645 0 32 14.354 32 32v256zM976 224c0-26.51-21.49-48-48-48s-48 21.49-48 48 21.49 48 48 48 48-21.49 48-48zM848 224c0-26.51-21.49-48-48-48s-48 21.49-48 48 21.49 48 48 48 48-21.49 48-48z" />
<glyph unicode="&#xf0a1;" glyph-name="bullhorn" horiz-adv-x="1152" d="M1088 526.24c38.1-22.18 64-62.98 63.98-110.24 0-47.26-25.9-88.061-64-110.24v-305.76c0-18.439-14.16-64-64-64-12.387 0.012-30.289 6.301-39.961 14.039l-170.059 136.061c-85.4 68.281-192.641 105.9-301.96 105.9h-56.16c-5.58-20.42-8.82-41.779-8.82-64 0-58.16 19.5-111.84 52.301-154.881 31.58-41.439 0.299-101.119-51.801-101.119h-212.558c-23.762 0-46.422 12.74-56.801 34.119-32.6 67.182-51.121 142.342-51.121 221.88l0.961 64c-70.699 0-128 57.301-128 128v192c0 70.699 57.301 128 128 128h384c109.32 0 216.56 37.619 301.98 105.9l170.059 136.061c11.58 9.279 25.721 14.039 39.961 14.039h0.020c50.020 0 63.98-46.52 63.98-64v-305.76zM447.52-64c-41.879 54.439-64.48 121.42-64.48 192 0 21.141 3 42.6 7.621 64h-198.66l-0.020-0.961-0.961-64c0.020-66.6 15.061-129.859 44.721-190.979zM128 256h384v320h-384c-35.279 0-64-28.721-64-64v-192c0-35.279 28.721-64 64-64zM1024.1 2.141l-0.1 829.84c-0.020-0.24-0.061-0.34-0.141-0.34-0.039 0-0.1 0.039-0.16 0.1l-169.738-135.801c-79.98-63.939-176.881-103.66-277.96-115.68v-328.52c101.080-12.020 197.98-51.74 277.94-115.66l169.66-135.74c0.24 0.641 0.42 1.301 0.5 1.801z" />
<glyph unicode="&#xf0a3;" glyph-name="certificate" d="M991.536 351.416c60.078-57.572 32.502-159.076-47.662-178.734l-45.533-11.621 12.928-45.396c22.299-79.883-51.953-153.072-130.898-130.9l-45.344 12.922-11.613-45.533c-19.797-80.852-122.391-107.293-178.904-47.492l-32.508 33.24-32.678-33.416c-57.002-59.547-158.873-33.484-178.732 47.672l-11.613 45.533-45.344-12.922c-78.389-21.957-153.34 50.494-130.898 130.9l12.928 45.396-45.535 11.621c-80.162 19.656-107.74 121.158-47.66 178.73l33.438 32.725-33.439 32.725c-60.078 57.572-32.5 159.076 47.662 178.73l45.533 11.623-12.928 45.395c-22.457 80.453 52.617 152.885 130.898 130.9l45.344-12.922 11.613 45.537c19.74 80.613 122.164 106.879 178.811 47.586l32.602-33.582 32.598 33.584c57.182 59.855 159.254 32.18 178.809-47.566l11.617-45.557 45.344 12.922c78.668 22.035 153.363-50.908 130.898-130.902l-12.928-45.395 45.535-11.623c80.162-19.656 107.74-121.158 47.66-178.73l-33.438-32.723zM928.402 234.79c31.477 7.529 42.641 47.893 18.662 70.596l-80.475 78.758 80.475 78.758c23.99 22.707 12.803 63.068-18.662 70.592l-109.639 27.982 30.906 108.525c8.734 31.217-20.699 60.66-51.906 51.924l-108.49-30.916-27.971 109.674c-7.404 30.973-48.213 42.301-70.57 18.668l-78.732-81.096-78.732 81.096c-22.104 23.365-63.084 12.66-70.57-18.668l-27.971-109.674-108.49 30.916c-31.215 8.74-60.639-20.713-51.906-51.924l30.906-108.527-109.639-27.982c-31.477-7.527-42.641-47.893-18.662-70.592l80.475-78.758-80.475-78.758c-23.99-22.711-12.803-63.070 18.662-70.596l109.639-27.98-30.906-108.527c-8.734-31.215 20.699-60.66 51.906-51.924l108.49 30.916 27.971-109.674c7.771-32.506 48.469-42.029 70.57-18.668l78.732 80.502 78.73-80.5c21.875-23.604 62.977-13.1 70.57 18.668l27.973 109.674 108.49-30.916c31.215-8.74 60.639 20.715 51.906 51.924l-30.906 108.527z" />
<glyph unicode="&#xf0a4;" glyph-name="hand-point-right" d="M883.2 601.6c75.262 0 140.801-64.479 140.801-140.799 0-76.969-64.127-140.801-140.801-140.801h-113.631c-0.018-0.701-0.041-1.406-0.066-2.107-1.074-28.375-9.313-55.453-23.77-79.164 9.287-46.678-4.67-96.773-33.27-130.988 3.25-99.572-58.051-171.74-177.264-171.74h-46.471c-108.221 0-180.906 68.562-250.206 84.076-11.668-12.354-28.189-20.076-46.523-20.076h-128c-35.346 0-64 28.654-64 64v448c0 35.346 28.654 64 64 64h128c23.24 0 43.584-12.389 54.797-30.918 36.1 20.15 99.713 98.766 121.838 134.287 27.766 44.926 46.273 152.631 143.365 152.631 82.629 0 147.199-59.844 147.199-140.801 0-35.58-8.707-65.221-19.582-89.6h243.582zM64 512v-448h128v448h-128zM883.2 384c41.4 0 76.801 35.4 76.801 76.801 0 40.799-36.6 76.799-76.801 76.799h-345.6c0 37.801 57.6 76.801 57.6 153.6 0 44.801-35.199 76.801-83.199 76.801s-57.408-71.371-89.004-122.4c-29.191-46.887-107.33-145.111-167-166.523v-397.354c79.359-19.189 144.055-81.723 232.728-81.723h46.471c88.416 0 124.635 48.43 110.402 133.801 31.883 17.457 52.695 74.137 28.201 117 42.252 39.764 38.807 101.193 10.799 133.199h198.602zM168 128c0-22.092-17.908-40-40-40s-40 17.908-40 40 17.908 40 40 40 40-17.908 40-40z" />
<glyph unicode="&#xf0a5;" glyph-name="hand-point-left" d="M0 460.8c0 76.32 65.539 140.799 140.801 140.799h243.582c-10.875 24.379-19.582 54.020-19.582 89.6 0 80.957 64.572 140.801 147.199 140.801 97.092 0 115.6-107.705 143.367-152.631 22.123-35.52 85.736-114.137 121.838-134.287 11.211 18.529 31.555 30.918 54.795 30.918h128c35.346 0 64-28.654 64-64v-448c0-35.346-28.654-64-64-64h-128c-18.334 0-34.855 7.723-46.521 20.076-69.301-15.514-141.984-84.076-250.206-84.076h-46.471c-119.211 0-180.514 72.168-177.264 171.74-28.6 34.215-42.557 84.311-33.27 130.988-14.459 23.709-22.697 50.789-23.77 79.164-0.025 0.701-0.049 1.406-0.066 2.107h-113.633c-76.674 0-140.801 63.832-140.801 140.801zM960 64v448h-128v-448h128zM64 460.8c0-41.4 35.4-76.801 76.801-76.801h198.598c-28.008-32.006-31.451-93.436 10.799-133.199-24.494-42.865-3.68-99.545 28.201-117-14.232-85.371 21.986-133.801 110.402-133.801h46.471c88.676 0 153.369 62.533 232.728 81.723v397.354c-59.67 21.412-137.811 119.639-167 166.523-31.592 51.029-41 122.4-89 122.4s-83.199-32-83.199-76.801c0-76.799 57.6-115.799 57.6-153.6h-345.6c-40.201 0-76.801-36-76.801-76.799zM896 168c22.092 0 40-17.908 40-40s-17.908-40-40-40-40 17.908-40 40 17.908 40 40 40z" />
<glyph unicode="&#xf0a6;" glyph-name="hand-point-up" horiz-adv-x="896" d="M230.4 755.2c0 75.262 64.479 140.801 140.799 140.801 76.969 0 140.801-64.127 140.801-140.801v-113.631c0.582-0.016 1.525-0.045 2.107-0.066 28.375-1.074 55.453-9.313 79.164-23.77 46.678 9.287 96.773-4.67 130.988-33.27 99.572 3.25 171.74-58.051 171.74-177.264v-46.471c0-108.221-68.562-180.906-84.076-250.206 12.354-11.668 20.076-28.189 20.076-46.523v-128c0-35.346-28.654-64-64-64h-448c-35.346 0-64 28.654-64 64v128c0 23.24 12.389 43.584 30.918 54.797-20.15 36.1-98.766 99.713-134.287 121.838-44.926 27.766-152.631 46.273-152.631 143.365 0 82.627 59.844 147.199 140.801 147.197 35.58 0 65.221-8.707 89.6-19.582v243.584zM320-64h448v128h-448v-128zM448 755.2c0 41.4-35.4 76.801-76.801 76.801-40.799 0-76.799-36.6-76.799-76.801v-345.6c-37.801 0-76.801 57.6-153.6 57.6-44.801 0-76.801-35.199-76.801-83.199s71.371-57.408 122.4-89.004c46.887-29.191 145.111-107.33 166.523-167h397.354c19.189 79.359 81.723 144.055 81.723 232.728v46.471c0 88.416-48.43 124.635-133.801 110.402-17.457 31.883-74.137 52.695-117 28.201-39.764 42.252-101.193 38.807-133.199 10.799v198.602zM704 40c22.092 0 40-17.908 40-40s-17.908-40-40-40-40 17.908-40 40 17.908 40 40 40z" />
<glyph unicode="&#xf0a7;" glyph-name="hand-point-down" horiz-adv-x="896" d="M371.2-128c-76.32 0-140.799 65.539-140.799 140.801v243.582c-24.379-10.875-54.020-19.582-89.6-19.582-80.957 0-140.801 64.572-140.801 147.199 0 97.092 107.705 115.6 152.631 143.367 35.52 22.123 114.137 85.738 134.287 121.838-18.529 11.211-30.918 31.555-30.918 54.795v128c0 35.346 28.654 64 64 64h448c35.346 0 64-28.654 64-64v-128c0-18.334-7.723-34.855-20.076-46.521 15.514-69.301 84.076-141.984 84.076-250.206v-46.471c0-119.211-72.168-180.514-171.74-177.264-34.215-28.6-84.311-42.557-130.988-33.27-23.709-14.459-50.789-22.697-79.164-23.77-0.701-0.025-1.406-0.049-2.107-0.066v-113.633c0-76.674-63.832-140.801-140.801-140.801zM768 832h-448v-128h448v128zM371.2-64c41.4 0 76.801 35.4 76.801 76.801v198.598c32.006-28.008 93.436-31.451 133.199 10.799 42.865-24.494 99.545-3.68 117 28.201 85.371-14.232 133.801 21.986 133.801 110.402v46.471c0 88.676-62.533 153.369-81.723 232.728h-397.354c-21.412-59.67-119.639-137.811-166.523-167-51.029-31.592-122.4-41-122.4-89s32-83.199 76.801-83.199c76.799 0 115.799 57.6 153.6 57.6v-345.6c0-40.201 36-76.801 76.799-76.801zM664 768c0 22.092 17.908 40 40 40s40-17.908 40-40-17.908-40-40-40-40 17.908-40 40z" />
<glyph unicode="&#xf0a8;" glyph-name="arrow-circle-left" d="M1008 384c0-274-222-496-496-496s-496 222-496 496 222 496 496 496 496-222 496-496zM512-48c239.8 0 432 194.6 432 432 0 239.8-194.6 432-432 432-239.8 0-432-194.6-432-432 0-239.8 194.6-432 432-432zM487 137l-230.2 230c-9.4 9.4-9.4 24.6 0 34l230.2 230c9.4 9.4 24.6 9.4 34 0l13.801-13.801c9.398-9.398 9.398-25-0.4-34.199l-171-165h380.6c13.199 0 24-10.801 24-24v-20c0-13.199-10.801-24-24-24h-380.6l171.199-165c9.6-9.4 9.801-24.801 0.4-34.199l-13.801-13.801c-9.6-9.4-24.799-9.4-34.199 0z" />
<glyph unicode="&#xf0a9;" glyph-name="arrow-circle-right" d="M16 384c0 274 222 496 496 496s496-222 496-496-222-496-496-496-496 222-496 496zM512 816c-239.8 0-432-194.6-432-432 0-239.8 194.6-432 432-432 239.8 0 432 194.6 432 432 0 239.8-194.6 432-432 432zM537 631l230.2-230c9.4-9.4 9.4-24.6 0-34l-230.2-230c-9.4-9.4-24.6-9.4-34 0l-13.801 13.801c-9.398 9.398-9.398 25 0.4 34.199l171.201 165h-380.8c-13.199 0-24 10.801-24 24v20c0 13.199 10.801 24 24 24h380.6l-171.199 165c-9.6 9.4-9.801 24.801-0.4 34.199l13.801 13.801c9.6 9.4 24.799 9.4 34.199 0z" />
<glyph unicode="&#xf0aa;" glyph-name="arrow-circle-up" d="M512-112c-274 0-496 222-496 496s222 496 496 496 496-222 496-496-222-496-496-496zM80 384c0-239.8 194.6-432 432-432 239.8 0 432 194.6 432 432 0 239.8-194.6 432-432 432-239.8 0-432-194.6-432-432zM265 409l230 230.2c9.4 9.4 24.6 9.4 34 0l230-230.2c9.4-9.4 9.4-24.6 0-34l-13.801-13.801c-9.398-9.398-25-9.398-34.199 0.4l-165 171v-380.6c0-13.199-10.801-24-24-24h-20c-13.199 0-24 10.801-24 24v380.6l-165-171.199c-9.4-9.6-24.801-9.801-34.199-0.4l-13.801 13.801c-9.4 9.6-9.4 24.799 0 34.199z" />
<glyph unicode="&#xf0ab;" glyph-name="arrow-circle-down" d="M512 880c274 0 496-222 496-496s-222-496-496-496-496 222-496 496 222 496 496 496zM944 384c0 239.8-194.6 432-432 432-239.8 0-432-194.6-432-432 0-239.8 194.6-432 432-432 239.8 0 432 194.6 432 432zM759 393c9.4-9.4 9.4-24.6 0-33.801l-230-230.2c-9.4-9.4-24.6-9.4-34 0l-230 230.2c-9.4 9.4-9.4 24.602 0 34l13.801 13.801c9.398 9.4 24.799 9.199 34.199-0.4l165-171.199v380.6c0 13.199 10.801 24 24 24h20c13.199 0 24-10.801 24-24v-380.6l165 171c9.199 9.799 24.801 9.799 34.199 0.4z" />
</font>
</defs>
</svg>
